<svg xmlns="http://www.w3.org/2000/svg" width="1280" height="800">
  <path fill-rule="evenodd" d="M620.124 370.3c0-47.52.001-95.04-.002-142.559 0-4.924-.089-4.362 4.474-4.364 21.2-.008 42.4-.033 63.6.032 7.623.023 14.919 1.67 21.731 5.182 7.764 4.003 13.106 10.337 17.139 17.921 5.307 9.979 8.543 20.667 10.828 31.676 3.058 14.733 3.871 29.649 3.207 44.634-.545 12.335-2.238 24.518-6.097 36.322-3.345 10.233-8.211 19.617-15.428 27.669-1.279 1.427-1.492 2.8-1.129 4.592 8.231 40.597 16.424 81.203 24.621 121.807.174.862.34 1.727.476 2.596.152.978-.266 1.539-1.28 1.583-.639.029-1.279.043-1.919.043-13.199.002-26.399.004-39.6 0-3.186-.001-3.195-.01-3.806-3.242-.979-5.186-1.941-10.375-2.917-15.562-4.257-22.633-8.517-45.265-12.774-67.897-1.464-7.779-2.917-15.562-4.392-23.339-.432-2.277-.502-2.341-2.778-2.363-2.96-.03-5.921-.039-8.88.007-1.865.028-2.039.242-2.114 2.083-.03.719-.011 1.44-.011 2.16 0 34.639.001 69.278 0 103.918 0 4.513.229 4.234-4.114 4.235-11.6.005-23.2.002-34.8.002-.64-.001-1.281.02-1.919-.015-1.775-.095-2.005-.323-2.099-2.164-.044-.878-.018-1.76-.018-2.64.001-47.437.001-94.877.001-142.317zm42.951-55.369c0 9.432-.008 18.864.006 28.296.004 2.488.122 2.611 2.544 2.621 4.797.02 9.593-.015 14.389.004 1.69.007 3.337-.289 4.995-.546 2.794-.434 4.886-1.847 6.251-4.336 1.116-2.035 2.149-4.105 2.933-6.295 3.047-8.512 3.663-17.323 3.061-26.243-.416-6.181-1.952-12.104-4.429-17.822-1.781-4.115-4.754-5.791-9.108-6.085-5.992-.405-11.979-.313-17.969-.365-.319-.002-.64.02-.959.007-1.227-.053-1.747.561-1.708 1.75.021.639-.005 1.279-.005 1.918-.002 9.031-.002 18.063-.001 27.096zm125.704 210.962c.771.417 1.597.756 2.299 1.267 1.161.844 1.3 1.757.395 2.86-.652.797-1.442 1.499-2.249 2.147-3.054 2.455-6.145 4.864-9.209 7.306-1.32 1.052-2.477 2.268-3.458 3.645-.474.664-.935 1.373-.543 2.207.384.819 1.224.637 1.915.635 3.435-.011 6.881.19 10.287-.464.453-.087.985.027 1.311-.548-.05-.174-.066-.421-.184-.604-1.61-2.527-1.54-4.248.444-6.449 2.865-3.176 6.605-4.669 10.726-5.37 3.29-.561 6.534-.37 9.697.716 1.067.366 1.799.061 2.528-.753 2.938-3.271 6.131-6.325 8.579-10.006.694-1.043 1.475-1.349 2.621-.958 1.44.489 2.887.965 4.173 1.801 2.144 1.394 2.288 2.705.402 4.377-1.255 1.113-2.613 2.109-3.92 3.165-4.294 3.47-8.536 6.998-12.32 11.036-.591.631-1.319 1.18-1.549 2.149.538.75 1.285.464 1.92.269 2.308-.709 4.434-1.817 6.465-3.112.554-.353.947-.811 1.178-1.455.86-2.41 2.703-3.897 4.874-5.059 2.791-1.494 5.794-2.335 8.922-2.598 2.064-.173 4.156-.082 6.233-.008.865.03 1.749.239 2.577.512 3.178 1.048 3.74 3.315 1.221 5.473-3.966 3.396-8.541 4.073-13.481 2.522-.653-.205-1.271-.868-1.99-.249-.813.7-1.336 1.596-1.394 2.692-.037.722.377 1.179 1.007 1.487.737.361 1.524.449 2.324.524 4.26.401 8.27-.472 12.085-2.351 1.598-.786 3.006-1.687 3.689-3.523.475-1.273 1.528-2.232 2.677-3.011 5.149-3.492 10.729-4.822 16.86-3.324 1.069.261 2.134.772 2.97-.521.153-.238.729-.258 1.116-.282 1.852-.118 3.682.061 5.451.628 2.444.782 2.729 1.999.875 3.733-1.692 1.584-3.449 3.101-5.133 4.693-.634.6-1.163 1.315-1.7 2.009-.242.313-.429.734-.15 1.104.271.359.729.323 1.111.221 1.556-.416 3.067-.976 4.314-2.018 3.13-2.613 6.293-5.192 9.211-8.049.869-.851 1.727-1.675 1.052-3.108-.333-.706-.025-1.402.586-1.926 1.225-1.049 4.146-1.143 5.448-.162.634.478.974 1.074.615 1.866-.192.427-.457.819-.661 1.18.44.822 1.243.844 1.874 1.135 1.813.838 3.699 1.553 5.246 2.861 2.013 1.703 2.294 3.525.9 5.727-1.239 1.959-2.955 3.367-5.162 4.097-5.541 1.829-11.148 2.021-16.738.319-1.383-.421-2.577-.48-3.935-.034-1.825.599-3.727.924-5.667.814-1.716-.097-3.371-.378-4.379-2.005-.404-.653-.841-.571-1.401-.24-.688.405-1.386.804-2.115 1.124-3.846 1.689-7.67 1.605-11.261-.581-1.354-.825-2.382-.742-3.759-.197-5.553 2.199-11.279 2.833-17.161 1.505-1.729-.392-3.42-.907-4.842-1.995-.819-.627-1.547-.574-2.443-.226-2.686 1.042-5.417 1.938-8.275 2.407-1.115.183-2.223.268-3.343.156-1.796-.178-3.325-.699-3.357-2.985-1.158.048-1.894.736-2.705 1.172-3.166 1.7-6.396 2.506-9.878.999-.801-.346-1.48-.34-2.109.46-1.342 1.708-3.301 2.256-5.332 2.319-5.194.161-10.393.259-15.58-.254-2.791-.275-5.591-.224-8.389-.096-.391.018-.856.14-1.073-.282-.274-.534.12-.922.493-1.212 1.185-.922 2.575-1.254 4.047-1.26 3.119-.014 6.239-.004 9.358-.004.037-.127-.063-.14-.278-.172-3.813-.58-4.642-2.068-3.021-5.589 1.114-2.42 2.754-4.504 4.567-6.43 2.084-2.211 4.256-4.34 6.382-6.512.543-.554 1.061-1.133 1.941-2.078-2.58 0-4.699.002-6.819-.001-.457-.001-1.048.25-1.307-.263-.309-.611.185-1.068.617-1.401 1.525-1.173 3.316-1.546 5.189-1.553 3.6-.012 7.199.02 10.798.023 4.399.006 8.798.002 13.224-.206-1.284-.244-2.576-.455-3.852-.737-9.266-2.051-16.675-7.09-22.829-14.167-5.896-6.779-10.149-14.549-13.611-22.765-6.051-14.361-10.028-29.337-12.933-44.617-2.018-10.611-3.447-21.3-4.37-32.063-.759-8.845-1.232-17.696-1.475-26.571-.15-5.517-.379-11.034-.218-16.545.373-12.702.813-25.397 2.144-38.055 1.82-17.301 4.782-34.367 9.816-51.032 3.291-10.893 7.233-21.534 13.25-31.283 4.499-7.289 9.865-13.771 17.118-18.524 15.474-10.139 35.817-8.895 49.898 4.661 6.669 6.421 11.498 14.117 15.267 22.497 6.398 14.23 10.312 29.228 13.533 44.433 2.372 11.199 3.992 22.516 5.095 33.899.871 8.989 1.538 18 1.626 27.043.034 3.516.354 7.033.291 10.545-.233 13.186-.49 26.367-1.671 39.522-1.555 17.318-4.179 34.439-8.672 51.249-3.166 11.849-7.017 23.447-12.928 34.262-3.084 5.643-6.729 10.877-11.269 15.46-6.926 6.993-15.182 11.369-24.994 12.63-1.244.159-2.26.431-3.076 1.515-1.11 1.473-2.781 2.123-4.562 2.407-4.529.725-9.079.638-13.634.276-1.498-.119-3.002-.183-4.503-.271.014.125.025.249.035.373zm1.934-155.879c-.021 8.632-.177 17.263.312 25.896.524 9.263 1.177 18.504 2.581 27.676 1.175 7.677 2.721 15.27 5.714 22.492 1.204 2.904 2.707 5.629 4.823 7.964 3.785 4.176 8.8 4.049 12.43-.263 1.242-1.476 2.274-3.088 3.127-4.816 3.001-6.086 4.574-12.609 5.829-19.219 2.437-12.837 3.431-25.844 3.744-38.862.436-18.059.626-36.132-.716-54.182-.575-7.737-1.277-15.45-2.566-23.102-1.186-7.031-2.723-13.972-5.624-20.532-1.138-2.57-2.499-5.013-4.521-7.017-3.222-3.193-7.298-3.328-10.756-.364-1.79 1.534-3.059 3.462-4.167 5.519-2.644 4.906-4.175 10.198-5.408 15.588-3.26 14.251-4.158 28.774-4.755 43.311-.274 6.627-.047 13.274-.047 19.911zm76.494 164.904c-3.402.353-6.608 1.378-9.603 3.086-1.045.597-1.978 1.345-2.757 2.27-1.178 1.397-1.557 2.863-.959 3.68.586.802 2.068.868 3.777.007 3.766-1.897 6.909-4.548 9.342-8.011.183-.261.371-.531.2-1.032zm16.88 10.026c3.189.043 5.613-1.508 6.675-4.105.852-2.083.497-3.408-1.198-4.887-.826-.721-1.521-.778-2.207.126-1.887 2.482-3.934 4.797-6.575 6.526-.742.486-.595 1.091.116 1.488 1.06.594 2.243.775 3.189.852zm-73.98-9.837c-3.366.322-6.469 1.268-9.387 2.813-1.444.764-2.65 1.805-3.566 3.138-.621.904-1.453 1.976-.544 3.033.78.906 1.948.521 2.904.094 4.409-1.967 7.784-5.167 10.593-9.078zm21.051 3.382c3.374.236 6.348-.702 9.038-2.576.131-.091.258-.19.37-.302.282-.278.611-.559.413-1.016-.147-.338-.491-.38-.81-.391-.397-.014-.81-.053-1.193.027-3.015.632-5.583 2.116-7.818 4.258z" clip-rule="evenodd"/>
  <path fill-rule="evenodd" d="M884.243 370.37c0-47.508.004-95.017-.006-142.526-.001-5.237.164-4.457 4.395-4.462 15.196-.021 30.393-.015 45.589.014 7.096.013 13.998 1.233 20.697 3.57 10.234 3.57 17.887 10.341 23.821 19.245 5.439 8.163 9.57 16.98 13.169 26.074 6.45 16.296 10.716 33.142 12.914 50.524 1.264 9.999 2.021 20.027 2.466 30.098.364 8.238.406 16.469.277 24.701-.153 9.75-.763 19.48-1.74 29.189-1.38 13.709-3.663 27.248-7.155 40.579-2.905 11.091-6.666 21.881-11.651 32.209-4.3 8.908-9.586 17.151-16.761 24.098-7.849 7.599-17.06 12.304-27.945 13.582-1.582.187-3.193.165-4.792.166-16.476.011-32.952.008-49.428.006-3.84 0-3.849-.004-3.849-3.82-.002-47.75-.001-95.498-.001-143.247zm42.302-.778c0 26.554 0 53.108.001 79.662 0 .8.028 1.6.011 2.399-.028 1.228.605 1.721 1.775 1.714 1.919-.011 3.842-.059 5.758.021 5.404.224 9.545-2.151 12.916-6.159 4.148-4.935 6.573-10.764 8.501-16.805 5.313-16.657 7.52-33.842 8.198-51.231.336-8.622.293-17.259-.246-25.896-.544-8.712-1.507-17.357-3.086-25.935-1.479-8.033-3.367-15.963-6.345-23.592-1.544-3.959-3.31-7.816-6.063-11.115-3.561-4.266-7.943-6.88-13.7-6.676-1.357.048-2.719.002-4.078.003-3.639.004-3.642.005-3.642 3.708v79.902zm-875.222.871c0-47.592.002-95.184-.003-142.776 0-4.827-.041-4.308 4.289-4.31 15.117-.008 30.235.018 45.353.005 5.553-.005 10.998.778 16.356 2.168 11.729 3.041 20.901 9.646 27.71 19.686 6.104 9 10.65 18.753 14.549 28.852 6.08 15.746 10.107 32.01 12.232 48.741 1.007 7.929 1.655 15.892 2.18 23.874.442 6.71.485 13.427.613 20.131.151 7.899-.133 15.82-.569 23.727-.361 6.548-.856 13.081-1.59 19.594-2.695 23.903-7.96 47.144-18.267 69.021-4.215 8.946-9.496 17.227-16.61 24.215-7.84 7.699-17.129 12.485-28.085 13.863-1.343.17-2.713.176-4.071.176-16.958.012-33.915.012-50.872.007-3.146-.001-3.21-.062-3.211-3.235-.006-22.236-.004-44.473-.004-66.709v-77.03zm42.302-.867v79.396c0 .8-.03 1.603.021 2.398.106 1.656.337 1.917 2.037 1.962 2.157.059 4.317.004 6.476.02 2.209.016 4.262-.559 6.216-1.559 2.925-1.496 5.144-3.787 7.016-6.409 3.143-4.402 5.236-9.328 6.893-14.446 5.034-15.549 7.367-31.58 8.161-47.837.381-7.811.686-15.628.274-23.48-.44-8.388-.958-16.753-2.174-25.061-1.426-9.743-3.459-19.355-6.759-28.661-1.5-4.232-3.24-8.363-5.912-12.008-3.758-5.127-8.556-8.339-15.226-7.938-1.036.062-2.078.006-3.118.007-3.902.003-3.905.004-3.905 3.978-.001 26.546 0 53.092 0 79.638zm402.132.806c0-47.676 0-95.352-.001-143.027 0-4.358-.113-4 4.094-4.001 19.198-.001 38.396.011 57.595.012 4.908 0 9.716.701 14.454 1.951 9.303 2.453 16.54 7.791 21.961 15.68 6.185 9 10.287 18.961 13.368 29.359 2.759 9.31 4.144 18.872 4.979 28.54.468 5.427.638 10.869.66 16.288.03 7.342-.333 14.694-1.109 22.022-.945 8.92-2.301 17.761-4.398 26.479-2.065 8.583-4.805 16.93-9.257 24.616-2.773 4.79-6.013 9.245-9.796 13.303-5.184 5.562-11.607 8.641-19.074 9.676-4.28.594-8.575.953-12.902.93-4.959-.028-9.919-.027-14.878.008-2.092.015-2.288.259-2.355 2.378-.025.8-.008 1.6-.008 2.399 0 32.077-.007 64.154.007 96.231.002 4.863-.271 4.177-4.2 4.185-11.679.022-23.358.008-35.037.008-.64 0-1.281.017-1.919-.013-1.869-.087-2.07-.271-2.163-2.076-.045-.878-.018-1.76-.018-2.64-.003-47.437-.003-94.872-.003-142.308zm42.325-52.653c0 9.914-.011 19.828.008 29.742.005 2.433.175 2.582 2.604 2.594 4.157.021 8.315-.014 12.472.01 5.848.034 9.875-2.646 12.158-8.018 1.604-3.772 2.694-7.69 3.417-11.714 1.398-7.778 1.351-15.597.407-23.405-.616-5.1-1.829-10.07-4.359-14.619-2.45-4.406-6.06-6.895-11.248-6.829-3.277.042-6.556-.005-9.834-.007-1.279 0-2.558.023-3.837.018-1.195-.005-1.754.604-1.768 1.768-.008.72-.021 1.439-.021 2.159-.002 9.433-.001 18.867.001 28.301zM330.743 421.344c-.001-7.039-.063-14.08.04-21.118.029-1.968-.667-2.991-2.437-3.837-12.198-5.831-22.088-14.336-29.261-25.855-5.24-8.414-8.537-17.521-9.26-27.464-1.678-23.095 7.378-41.442 25.097-55.743 11.039-8.91 23.833-13.909 37.908-15.504 21.038-2.385 40.241 2.419 57.036 15.473 14.136 10.987 22.808 25.399 24.979 43.301 1.933 15.941-2.204 30.448-11.487 43.491-6.772 9.515-15.552 16.714-25.992 21.856-2.096 1.032-2.863 2.266-2.846 4.589.099 13.438.053 26.878.045 40.318-.003 4.761-.993 9.226-4.143 12.977-2.487 2.961-5.546 4.738-9.564 4.621-6.157-.179-12.313.31-18.465.219-5.996-.09-11.994-.38-17.986-.192-5.101.159-8.464-2.402-11.008-6.412-1.939-3.058-2.646-6.491-2.651-10.078-.011-6.882-.004-13.762-.005-20.642zM228.932 313.085c1.953-8.047 3.822-15.736 5.686-23.427 5.085-20.983 10.169-41.966 15.252-62.95.075-.311.132-.626.215-.936.614-2.298.698-2.393 3.108-2.395 11.519-.012 23.037-.006 34.556-.006.24 0 .48-.007.72.007 1.723.099 1.956.331 1.53 2.076-.796 3.262-1.688 6.501-2.542 9.75-10.548 40.139-21.099 80.278-31.646 120.417-3.17 12.065-6.313 24.138-9.513 36.195-.399 1.504-.418 3-.418 4.516-.002 38.876-.003 77.751 0 116.627 0 4.953.135 4.468-4.377 4.473-11.359.014-22.718.005-34.077.005-.64 0-1.28.013-1.919-.006-2.211-.063-2.392-.248-2.462-2.546-.024-.799-.008-1.6-.008-2.399 0-38.636-.006-77.271.014-115.908.001-2.177-.248-4.283-.803-6.393-11.166-42.458-22.302-84.923-33.45-127.385-3.086-11.756-6.19-23.508-9.285-35.262-.102-.387-.193-.776-.29-1.164-.746-2.983-.745-2.999 2.227-3 14.158-.006 28.317-.006 42.475 0 2.801.001 2.822.013 3.503 2.797 3.723 15.225 7.435 30.452 11.15 45.678 3.185 13.051 6.37 26.103 9.556 39.153.148.616.203 1.263.798 2.083zm884.143 1.513c-4.295-.883-8.468-1.601-12.567-2.696-10.341-2.763-19.575-7.439-26.724-15.628-5.778-6.619-8.92-14.32-9.205-23.151-.477-14.765 6.256-25.762 17.9-34.143 8.528-6.138 18.188-9.62 28.396-11.711 7.222-1.479 14.528-2.276 21.895-2.402 6.235-.107 12.47-.135 18.694.459 14.264 1.36 27.881 4.786 40.179 12.449 4.438 2.766 8.41 6.091 11.694 10.205 6.07 7.604 8.646 16.347 8.171 25.953-.513 10.363-4.424 19.231-12.351 26.152-4.334 3.784-9.317 6.459-14.623 8.575-6.651 2.652-13.606 4.116-20.656 5.19-.293.044-.633-.029-.954.464 1.111.259 2.158.517 3.211.748 8.641 1.896 16.937 4.724 24.653 9.118 6.136 3.493 11.424 7.914 15.257 13.933 8.899 13.977 7.981 35.677-8.703 48.101-5.452 4.06-11.505 6.909-17.825 9.25-9.197 3.408-18.704 5.399-28.47 6.368-4.149.412-8.319.622-12.444.603-18.414-.086-36.363-2.61-52.846-11.598-7.693-4.195-14.003-9.818-17.757-17.923-5.743-12.397-4.948-28.857 6.821-40.645 3.412-3.416 7.374-6.117 11.636-8.393 7.749-4.14 15.977-6.923 24.536-8.791.697-.154 1.389-.325 2.082-.487zm23.71-54.967c-4.351-.231-9.458.167-14.555.563-4.459.347-8.896.984-13.174 2.411-2.464.822-4.71 2.021-6.483 3.954-3.154 3.438-2.765 8.295.878 11.19 1.645 1.307 3.515 2.2 5.488 2.901 4.172 1.482 8.51 2.285 12.883 2.65 4.469.374 4.072.844 3.759 4.705-.633 7.804-1.378 15.599-2.065 23.398-.13 1.482.119 1.723 1.554 1.6 5.256-.452 10.518-.814 15.796-.7 2.235.048 4.466.289 6.701.351 2.242.062 2.281.009 2.085-2.264-.612-7.084-1.256-14.166-1.889-21.249-.156-1.751-.326-3.5-.466-5.252-.156-1.943.135-2.282 2.011-2.391.558-.032 1.119-.025 1.679-.026 4.083-.006 8.143-.331 12.172-.971 3.418-.543 6.699-1.474 9.613-3.472 3.482-2.388 3.752-7.975.491-10.636-1.122-.916-2.309-1.719-3.63-2.313-2.563-1.151-5.234-1.968-7.988-2.517-7.953-1.586-15.998-2.047-24.86-1.932zm1.609 86.271c-.399 0-.799.002-1.198 0-7.924-.055-15.82.27-23.573 2.082-3.585.838-7.058 1.961-10.138 4.138-3.88 2.743-3.82 8.634.308 11.083 2.438 1.446 4.992 2.499 7.701 3.23 5.738 1.549 11.62 2.207 17.528 2.365 7.742.208 15.492.363 23.23-.381 4.785-.46 9.523-1.125 14.115-2.552 2.748-.854 5.443-1.9 7.5-4.078 2.238-2.37 2.307-6.04.135-8.483-1.135-1.276-2.557-2.162-4.065-2.918-2.958-1.482-6.134-2.269-9.355-2.897-7.332-1.43-14.748-1.681-22.188-1.589zm13.547 116.009c6.714 1.451 13.426 2.906 20.141 4.354 11.407 2.46 22.816 4.916 34.225 7.375.469.102.929.248 1.401.326 1.151.189 1.632.883 1.598 2.01-.015.479.009.959.009 1.439.001 12.318.004 24.637-.001 36.955-.001 3.518-.01 3.524-3.633 3.525-39.594.014-79.188.027-118.783.035-5.437.001-10.863.497-16.303.292-.719-.027-1.441-.013-2.157-.073-.918-.076-1.474-.55-1.478-1.535-.001-.319-.026-.639-.027-.959-.009-8.635.069-17.271-.287-25.903-.014-.319-.004-.64 0-.96.043-3.056.218-3.249 3.292-3.252 19.117-.017 38.234-.023 57.352-.033.639 0 1.277 0 1.974-.232-1.215-.3-2.422-.633-3.644-.896-18.754-4.039-37.511-8.068-56.266-12.102-2.408-.519-2.676-.765-2.69-3.156-.039-6.159-.036-12.318-.005-18.478.011-2.138.172-2.335 2.429-2.825 8.591-1.87 17.191-3.698 25.789-5.536 10.631-2.271 21.263-4.535 31.894-6.808.536-.114 1.062-.277 1.569-.643-1.317 0-2.634-.001-3.95 0-18.078.015-36.155.029-54.232.043-3.498.003-3.53-.014-3.535-3.409-.01-7.279-.004-14.559 0-21.837.001-.64.017-1.28.073-1.917.084-.922.561-1.468 1.544-1.469.399-.001.8-.025 1.199-.028 16.232-.099 32.466-.246 48.699-.281 29.035-.062 58.071-.051 87.107-.083 4.502-.005 4.065.125 4.068 4.073.009 11.918.004 23.836.004 35.755 0 .479.007.96-.005 1.439-.054 2.253-.11 2.385-2.349 2.862-5.003 1.067-10.019 2.075-15.027 3.114-12.992 2.696-25.982 5.397-38.974 8.099-.367.076-.729.181-1.093.271.025.151.049.3.072.448zm-671.747-54.624v106.07c0 4.313.176 4.078-4.031 4.08-10.879.003-21.758 0-32.637 0-.56 0-1.121.016-1.68-.012-1.811-.089-2.039-.307-2.15-2.12-.045-.718-.02-1.44-.02-2.159-.001-70.714-.001-141.427 0-212.141 0-4.105.003-4.108 4.054-4.109 10.959-.001 21.918-.003 32.877.001 3.578.002 3.585.012 3.586 3.599.002 35.598.001 71.195.001 106.791zm-40.987-158.156c-2.635 4.323-5.175 8.479-7.703 12.642-2.822 4.65-5.631 9.308-8.45 13.959-.332.547-.692 1.077-1.036 1.616-.463.727-1.066.973-1.809.441-2.861-2.049-5.71-4.114-8.563-6.175-.919-.664-.803-1.442-.282-2.3 1.33-2.188 2.63-4.393 3.958-6.581 4.399-7.248 8.806-14.492 13.21-21.736.208-.342.402-.694.634-1.019.925-1.294 1.135-1.37 2.514-.419 2.106 1.454 4.158 2.987 6.238 4.478.38.272.727.644 1.437.538.517-.691.307-1.598.309-2.433.02-7.04.011-14.08.012-21.12 0-.64-.028-1.283.027-1.919.13-1.478.415-1.744 1.929-1.867.478-.039.959-.021 1.439-.021 11.2-.001 22.399-.004 33.599.001 3.509.002 3.521.013 3.521 3.422.004 21.919.002 43.839.002 65.758 0 .24.003.48-.002.72-.052 2.489-.215 2.688-2.805 2.692-11.6.018-23.199.016-34.799.003-2.743-.003-2.904-.183-2.908-3.085-.012-9.04-.005-18.08-.005-27.119 0-3.04.002-6.08-.007-9.12 0-.377.088-.79-.46-1.356zm617.801 230.941c0 11.272.004 22.544-.002 33.816-.002 3.541-.014 3.547-3.629 3.548-11.513.003-23.024.001-34.536.001-.48 0-.961.013-1.439-.01-1.841-.089-2.061-.295-2.185-2.086-.038-.558-.02-1.119-.02-1.679-.001-22.385-.002-44.77.001-67.154 0-3.773.008-3.776 3.867-3.776 11.353-.002 22.704-.001 34.057-.001.56.001 1.12-.015 1.679.009 1.854.081 2.067.27 2.183 2.077.056.876.024 1.758.024 2.637.001 10.873 0 21.745 0 32.618zM980.75 529.7c1.513-1.293 3.196-1.75 5.127-1.079 1.688.586 2.057 1.173 1.313 2.805-.457 1.004-.053 1.304.725 1.571 1.285.44 2.58.855 3.861 1.306.678.238 1.38.452 1.995.808 1.83 1.058 1.969 2.392.387 3.799-1.254 1.116-2.599 2.13-3.856 3.241-.576.508-1.304.933-1.513 1.934.983.221 1.912.028 2.777-.271 3.289-1.135 6.134-2.769 8.407-5.634 3.522-4.439 8.49-6.348 14.089-6.627.953-.047 1.962-.071 2.238 1.25.161.764.756.373 1.163.265 2.346-.621 4.732-.748 7.137-.596 1.792.113 3.698.36 4.469 2.219.83 2.003-.572 3.47-1.803 4.871-.551.629-1.425.96-2.037 2.199 2.052-.648 3.712-.954 4.809-2.585 2.742-4.076 6.912-5.771 11.514-6.617 3.27-.601 6.539-.49 9.704.608 1.171.406 1.975.115 2.759-.75 2.9-3.197 5.919-6.291 8.471-9.79 1.082-1.481 1.203-1.525 2.98-.967 1.298.408 2.569.901 3.736 1.612 2.24 1.367 2.394 2.858.42 4.526-1.589 1.341-3.258 2.585-4.861 3.908-3.823 3.157-7.678 6.283-11.084 9.903-.677.72-2.003 1.528-1.406 2.493.628 1.018 1.882.087 2.824-.206 4.941-1.535 8.182-5.11 10.973-9.214.089-.132.166-.273.235-.417 1.171-2.438 1.167-2.424 3.862-1.864 1.102.229 2.192.481 3.182 1.027 1.824 1.005 2.016 2.182.455 3.544-1.564 1.366-3.266 2.572-4.873 3.891-.8.656-1.601 1.342-2.258 2.134-.619.747-.32 1.371.65 1.505 1.123.155 2.223.001 3.298-.4 1.821-.678 3.523-1.594 4.94-2.897 2.632-2.423 5.41-4.763 6.582-8.349.215-.657.723-.83 1.318-.776 1.923.174 3.816.526 5.506 1.505 1.678.972 1.785 2.12.25 3.394-2.215 1.837-4.528 3.555-6.787 5.341-.665.526-1.465.943-1.864 1.904.999.478 1.829.001 2.605-.224 3.518-1.017 6.668-2.578 8.84-5.752 1.382-2.018 3.345-3.438 5.666-4.271 4.667-1.675 9.449-2.306 14.387-1.509 1.219.197 2.339.559 3.228 1.435 1.211 1.196 1.132 2.632-.169 3.738-1.994 1.695-7.804 2.334-10.128 1.112-.286-.15-.611-.342-.613-.672-.001-.489.419-.646.826-.688 1.529-.158 2.973-.633 4.375-1.217.784-.327 1.702-.521 2.182-1.533-.873-.692-1.806-.432-2.683-.154-3.732 1.183-6.939 3.23-9.689 6.005-.168.17-.322.356-.461.552-1.455 2.035-.873 3.631 1.581 3.887 4.375.455 8.608-.239 12.634-2.055.738-.333 1.376-.805 1.781-1.543 2.257-4.113 5.409-7.513 8.632-10.859.371-.384.911-.688.902-1.37-.657-.769-1.588-.603-2.432-.644-2.956-.143-5.914-.199-8.874-.064-.637.028-1.291.075-1.911-.033-.673-.117-.663-.608-.272-1.048.562-.63 1.36-.838 2.146-.969 3.329-.554 6.68-.714 10.035-.307 4.204.511 4.912.28 6.91-3.441.663-1.234 1.344-1.419 2.451-1.036 1.133.391 2.257.811 3.369 1.256 1.891.759 3.482 1.753 2.747 4.449 2.71-.411 5.188-.325 7.508-1.382 1.493-.681 2.324-.407 3.274.866.86 1.154.788 2.178-.479 2.771-1.158.543-1.911 1.389-2.646 2.331-.888 1.14-1.924 1.502-3.364.951-1.706-.651-3.532-.887-5.234-1.67-1.558-.717-3.227-.596-4.725.616-4.178 3.378-8.065 7.049-11.557 11.135-.207.242-.418.492-.567.771-.413.765-.135 1.26.718 1.246.392-.006.79-.106 1.17-.219 3.609-1.067 6.83-2.657 8.809-6.123 1.063-1.86 2.747-3.348 3.307-5.521.192-.745.79-.991 1.493-.884 1.814.275 3.662.443 5.341 1.272 1.851.913 2.051 2.137.469 3.505-1.813 1.569-3.734 3.012-5.594 4.526-.973.793-1.916 1.622-2.646 2.676.278.182.414.348.524.332 4.296-.619 8.178-1.988 10.934-5.652 3.677-4.886 8.804-6.938 14.748-7.268.634-.035 1.585-.095 1.731.513.405 1.68 1.455 1.054 2.371.833 2.206-.531 4.436-.538 6.675-.4.475.029.957.104 1.414.233 3.018.856 3.72 2.813 2.023 5.454-.782 1.219-1.998 2.016-2.891 3.196 1.376-.016 2.604-.337 3.529-1.415 1.25-1.454 2.493-2.916 3.729-4.382.681-.806 1.278-1.644 1.112-2.8-.122-.856.409-1.142 1.146-1.154 2.636-.046 5.323-.29 7.671 1.276.846.563 1.622.508 2.493.204 2.324-.811 4.731-.664 7.128-.559 1.126.05 2.222.314 3.255.759 2.318.997 2.52 2.52.52 4.118-2.061 1.647-4.173 3.231-6.252 4.856-.614.479-1.288.926-1.541 1.698.455.739 1.036.436 1.541.314 2.672-.644 5.171-1.664 7.313-3.44.309-.255.605-.534.949-.73.837-.479 1.897-.205 2.533.614.672.866.199 1.525-.46 2.047-.686.541-1.428 1.031-2.2 1.438-2.934 1.547-6.085 2.423-9.359 2.843-1.434.185-2.884.163-4.255-.408-1.634-.683-2.105-1.778-1.511-3.469.377-1.067 1.027-1.983 1.646-2.918.794-1.2 1.59-2.399 2.354-3.617.305-.485.508-1.038.055-1.553-.426-.483-1.016-.447-1.563-.313-1.021.252-1.964.734-2.773 1.384-3.059 2.448-6.095 4.924-9.103 7.434-.667.557-1.226 1.261-1.76 1.953-1.14 1.476-2.291 1.939-3.524.602-2.834-3.072-6.098-1.815-9.081-1.046-3.722.962-7.389 1.992-11.244 2.267-1.939.139-3.831-.109-5.717-.417-1.108-.181-2.213-.633-2.93-1.526-.903-1.128-1.813-.947-2.947-.456-2.208.954-4.519 1.606-6.904 1.958-2.162.318-4.312.473-6.275-.783-.839-.536-1.664-.314-2.534-.078-2.238.605-4.479 1.188-6.838 1.109-1.378-.046-2.744-.176-3.943-.861-1.147-.654-2.226-.637-3.441-.248-3.873 1.238-7.874 1.343-11.877 1.05-2.668-.195-5.204-1-7.288-2.764-.945-.8-1.76-.816-2.821-.315-2.826 1.335-5.739 2.399-8.868 2.854-1.628.236-3.197.244-4.724-.328-1.02-.383-1.981-.429-3.039-.172-4.296 1.045-8.542 1.192-12.619-.91-.863-.444-1.706-.181-2.557.092-1.829.587-3.695 1.025-5.589 1.354-1.114.193-2.227.261-3.344.122-2.456-.304-2.928-.799-3.157-3.295-1.293.676-2.557 1.343-3.826 1.999-4.153 2.146-8.077 1.536-11.682-1.199-1.004-.762-1.857-1.078-3.04-.733-1.232.358-2.512.432-3.792.525-2.308.171-4.567.509-6.803 1.261-4.429 1.49-9.002 2.128-13.696 1.585-1.633-.188-3.197-.572-4.335-1.792-.813-.872-1.576-.888-2.552-.449-2.199.99-4.503 1.647-6.884 2.022-1.513.238-3.022.266-4.51-.213-2.659-.854-3.695-2.836-2.646-5.398.51-1.247 1.303-2.378 1.978-3.556.238-.416.518-.809.757-1.224.321-.558.323-1.064-.301-1.431-.498-.292-.928-.16-1.277.247-.834.971-1.654 1.952-2.475 2.935-.978 1.169-2.019 2.272-3.257 3.172-1.57 1.142-3.341 1.503-5.231 1.251-.901-.12-1.082-.645-.415-1.301 1.596-1.57 3.259-3.071 4.884-4.612.638-.604 1.195-1.302 1.877-1.849 1.721-1.38 2.549-2.975 1.486-5.139l.119-.167zm33.013 4.612c-3.049.431-5.562 1.493-7.798 3.228-1.013.785-1.97 1.648-2.685 2.721-1.505 2.259-.586 4.14 2.103 4.334 1.785.129 3.506-.202 5.161-.853 1.451-.571 1.462-.649.644-1.983-1.229-2.002-1.185-3.133.308-5.006.632-.795 1.381-1.496 2.267-2.441zm145.952-.068c-1.091.239-1.803.339-2.478.551-3.124.981-5.827 2.627-7.863 5.232-.699.895-1.229 1.896-.665 3.1.559 1.191 1.604 1.445 2.783 1.485 1.787.06 3.504-.261 5.146-.946 1.258-.525 1.267-.625.502-1.865-1.255-2.034-1.228-3.14.241-5.007.632-.802 1.378-1.513 2.334-2.55zm-107.788.529c-3.565.599-6.541 1.388-9.356 2.759-1.617.788-2.909 1.96-4.033 3.327-1.102 1.341-1.406 2.614-.72 3.215.994.871 2.119.509 3.149.038 4.386-2.004 7.569-5.409 10.96-9.339zm109.695 5.59c1.478-1.037 2.453-2.326 3.148-3.854.135-.297.117-.636-.115-.896-.249-.28-.563-.22-.877-.105-1.672.61-2.658 2.658-2.156 4.855zm-145.934.007c1.488-1.035 2.457-2.326 3.16-3.848.136-.295.119-.633-.103-.899-.242-.292-.558-.232-.873-.12-1.664.594-2.66 2.637-2.184 4.867zm-653.792-55.329c8.637 0 17.274.043 25.91-.029 2.213-.019 3.922.442 4.787 2.701.902 2.359.452 5.491-1.074 6.98-.802.783-1.801 1.068-2.86.997-1.53-.104-2.318.649-2.88 1.979-1.583 3.753-4.076 6.843-7.104 9.54-8.783 7.826-22.619 7.859-31.433.067-3.036-2.685-5.577-5.75-7.125-9.52-.654-1.59-1.667-2.238-3.319-2.045-.316.036-.639.007-.959.002-2.858-.039-3.992-.771-4.769-3.076-.826-2.449-.143-5.597 1.469-6.892.886-.711 1.923-.702 2.965-.703 5.998-.003 11.996-.003 17.994-.003 2.8.002 5.599.002 8.398.002zm260.426 59.391c3.523-.322 6.294-1.461 8.732-3.331 2.924-2.244 5.467-4.914 8.031-7.553.616-.635.804-1.187.487-2.116-.514-1.511-.082-2.143 1.393-2.759 1.17-.489 2.337-.464 3.507-.019 1.512.576 1.872 1.151 1.262 2.698-.434 1.099.006 1.459.885 1.749 1.365.452 2.738.885 4.09 1.376.672.243 1.36.517 1.939.921 1.352.942 1.471 2.024.292 3.192-1.019 1.01-2.199 1.854-3.268 2.816-.813.734-1.745 1.378-2.371 2.64 2.683.23 4.875-.7 6.717-2.141 3.018-2.36 5.94-4.858 8.675-7.56.871-.861 1.694-1.69 1.03-3.114-.329-.707-.009-1.4.606-1.918 1.239-1.042 4.16-1.127 5.447-.14.629.482.961 1.082.593 1.872-.196.423-.455.817-.654 1.169.396.752 1.106.774 1.667 1.046 1.223.592 2.486 1.106 3.677 1.756 4.287 2.337 4.668 5.34 1.154 8.776-2.308 2.256-5.276 2.9-8.301 3.354-4.494.676-8.923.441-13.218-1.179-.802-.303-1.554-.165-2.342.052-1.232.339-2.48.616-3.727.904-1.182.273-2.388.296-3.579.154-3.905-.465-5.371-3.208-3.55-6.678.631-1.2 1.432-2.311 2.13-3.476.333-.555.687-1.178-.021-1.698-.702-.517-1.189-.022-1.621.479-.836.969-1.623 1.979-2.49 2.918-4.675 5.053-10.674 7.413-17.316 8.429-1.12.171-2.3.136-3.301-.365-1.415-.708-2.708-.486-4.153-.128-2.897.719-5.849.823-8.79.121-1.1-.262-2.292-.519-3.007-1.377-.987-1.186-2.125-1.142-3.442-1.026-2.788.244-5.521.584-8.223 1.462-4.279 1.39-8.698 2.073-13.228 1.462-.316-.042-.64-.042-.954-.099-4.26-.777-5.686-3.817-3.564-7.611.87-1.555 1.996-2.878 3.47-3.912 3.348-2.349 7.021-3.798 11.122-4.021 1.079-.059 2.275-.246 2.751 1.259.268.848.976.277 1.436.157 2.276-.595 4.584-.606 6.906-.498.319.015.642.025.956.076 3.683.589 4.695 3.021 2.415 5.95-.81 1.04-1.818 1.926-2.992 3.148 2.146-.317 3.724-.833 4.803-2.444 1.456-2.173 3.652-3.844 4.358-6.526.148-.562.716-.638 1.186-.588 1.912.2 3.823.475 5.51 1.479 1.593.949 1.759 1.999.358 3.239-1.792 1.588-3.74 3-5.604 4.509-.619.501-1.257 1.006-1.763 1.611-.631.757-.397 1.384.551 1.543 1.199.202 2.386.084 3.527-.397 2.002-.845 3.968-1.804 5.486-3.368 2.316-2.384 4.994-4.519 6.053-7.881.252-.802.943-.815 1.577-.723 1.579.231 3.168.456 4.624 1.181 2.29 1.141 2.483 2.312.525 3.928-2.157 1.781-4.412 3.443-6.603 5.184-.592.478-1.311.867-1.846 2.036zm-34.182-9.971c-3.731.434-7.238 2.16-9.54 4.721-.639.711-1.247 1.455-1.441 2.431-.275 1.386.271 2.568 1.54 2.803 2.789.516 5.426.068 7.871-1.535-2.697-3.5-2.599-3.979 1.57-8.42zm74.684 10.482c3.236.057 5.641-1.588 6.746-4.294.701-1.717.317-3.082-.929-4.335-1.251-1.259-1.725-1.283-2.832.12-1.435 1.817-2.965 3.527-4.719 5.047-.724.627-2.27.855-1.903 2.074.35 1.167 1.861.986 2.896 1.308.299.092.632.071.741.08zm-72.474-4.719c.084-.027.173-.034.23-.079 1.334-1.044 2.344-2.355 2.891-3.946.241-.704-.277-1.003-.976-.801-1.291.374-2.916 2.721-2.822 4.063.029.422.167.769.677.763zm143.489-3.017c2.366.332 4.245.058 6.04-.682.963-.396 1.69-.274 2.313.554.781 1.04.602 1.971-.596 2.521-1.094.503-2.288.676-3.478.853-2.072.306-4.135.148-6.21.042-2.609-.135-3.621.637-4.257 3.181-.486 1.943-1.054 3.854-1.858 5.689-.947 2.159-2.321 3.993-4.123 5.522-2.487 2.112-5.394 2.322-8.377 1.684-2.345-.503-3.193-2.396-2.212-4.608.417-.938 1.088-1.761 1.627-2.646.356-.587 1.078-.994.921-1.958-.874-.393-1.836-.154-2.758-.162-1.628-.015-3.227-.187-4.575-1.151-.847-.605-1.622-.474-2.485-.203-2.446.766-4.936 1.254-7.505 1.471-3.483.295-6.851-.124-10.157-1.17-1.229-.389-2.356-.993-3.328-1.857-2.12-1.884-2.372-4.08-.756-6.39.894-1.277 2.104-2.178 3.431-2.94 2.89-1.663 6.041-2.559 9.329-2.853 2.061-.185 4.153-.079 6.229-.021.787.021 1.584.219 2.348.437 1.341.381 2.637.946 3.013 2.445.399 1.591-.736 2.574-1.8 3.391-4.034 3.099-8.505 3.833-13.33 2.173-1.57-.54-1.933-.456-2.702.862-1.073 1.841-.58 3.09 1.531 3.487 2.375.448 4.786.362 7.159-.06 2.214-.394 4.308-1.198 6.327-2.185 1.601-.783 2.886-1.844 3.92-3.382 3.357-4.994 7.672-9.198 11.653-13.675 1.008-1.134 2.154-2.157 2.795-3.571.415-.914 1.097-1.059 1.975-.784 1.831.573 3.708 1.088 5.294 2.189.895.622 1.555.629 2.32-.073.231-.212.537-.344.808-.514 4.146-2.604 8.08-1.783 11.854.808 1.612 1.107 1.664 2.307.116 3.749-2.046 1.906-4.219 3.675-6.297 5.547-1.399 1.258-2.938 2.393-4.199 4.28zm-7.819-6.273c-.623-.185-.923.132-1.216.378-4.097 3.443-8.162 6.923-11.964 10.695-.45.446-.875.944-1.2 1.485-.534.889-.2 1.525.749 1.363 2.455-.418 4.875-1.002 6.706-2.876 1.619-1.656 3.135-3.418 4.807-5.017 1.783-1.704 1.962-3.838 2.118-6.028zm-34.1 7.526c3.395.289 6.4-.667 9.125-2.587.389-.274.892-.601.778-1.114-.16-.727-.875-.612-1.394-.563-3.37.327-6.02 2.113-8.509 4.264zm25.083 16.228c3.261-.877 5.835-4.197 5.968-7.469-2.533 1.843-4.928 4.789-5.968 7.469zm14.191-26.557c.951-.912 2.173-2.084 3.152-3.023-1.93 1.01-2.427 1.501-3.152 3.023z" clip-rule="evenodd"/>
  <path fill-rule="evenodd" d="M980.629 529.869c-1.607 2.604-3.975 4.34-6.62 5.742-5.157 2.733-10.724 4.084-16.463 4.856-2.381.319-4.765.501-7.169.453-.55-.011-1.214-.048-1.638.223-2.77 1.765-5.483 3.627-6.825 6.817-.634 1.506-1.298 1.852-3.162 1.443-1.77-.389-2.467-1.185-2.24-2.798.271-1.925.955-3.726 2.16-5.269.706-.903.953-1.579-.244-2.302-.804-.484-1.114-1.334-.896-2.302.267-1.176 1.077-1.746 2.071-1.123 2.131 1.338 3.5.462 4.949-1.134 1.609-1.771 3.422-3.357 5.132-5.038.942-.926 1.972-1.23 3.269-.77 1.355.482 2.741.888 4.003 1.592 2.235 1.247 2.35 2.564.343 4.235-1.032.858-2.134 1.634-3.394 2.59.948.503 1.742.3 2.464.183 4.577-.743 8.765-2.411 12.397-5.357.88-.714 1.641-1.529 2.179-2.525.914-1.694.471-2.944-1.369-3.573-1.436-.491-2.942-.685-4.477-.729-5.149-.146-10.194.566-15.188 1.747-3.823.904-7.563 2.041-11.029 3.938-2.06 1.128-3.991 2.396-4.919 4.702-.309.768-.849 1.161-1.666 1.065-1.833-.216-3.655-.528-5.245-1.536-1.92-1.216-2.17-3.156-.651-4.889.911-1.039 2.113-1.701 3.324-2.322 4.813-2.472 10.026-3.694 15.257-4.861 8.01-1.787 16.127-2.241 24.301-1.927 2.564.099 5.088.506 7.513 1.382 4.004 1.448 4.957 3.227 3.954 7.316 0 .002-.121.171-.121.171zm-618.666-50.342c-8.639.002-17.278-.024-25.917.021-2.057.011-3.855-.267-4.759-2.405-.974-2.304-.853-4.533.602-6.607.575-.819 1.419-1.286 2.438-1.354.638-.042 1.279-.047 1.918-.047 17.118-.002 34.236-.006 51.354.001 4.113.001 6.293 2.768 5.338 6.734-.612 2.545-1.926 3.641-4.578 3.647-8.798.024-17.597.009-26.396.01zm81.182 69.61c-2.877.027-5.757.096-8.588-.58-1.803-.431-3.558-.979-4.954-2.274-1.725-1.601-1.556-3.017.472-4.207 1.047-.614 2.21-.915 3.369-1.226.744-.198 1.401-.106 1.992.454 3.605 3.42 8.075 3.603 12.599 3.11 5.555-.604 10.743-2.416 15.433-5.519 2.494-1.649 4.595-3.731 6.329-6.152 2.552-3.563 1.504-6.574-2.681-7.929-2.724-.881-5.55-.929-8.315-.579-5.528.699-10.754 2.396-15.423 5.553-1.668 1.128-3.263 2.341-4.009 4.32-.346.92-1.055 1.107-1.917 1.073-1.712-.067-3.327-.506-4.77-1.422-1.745-1.107-2.021-2.815-.792-4.531.812-1.134 1.962-1.856 3.16-2.52 4.249-2.354 8.865-3.609 13.584-4.543 7.538-1.489 15.067-1.67 22.569.262 2.265.583 4.392 1.48 6.308 2.833 2.799 1.976 3.586 4.542 2.31 7.756-1.03 2.593-2.845 4.61-4.988 6.337-3.52 2.836-7.44 4.955-11.705 6.446-6.471 2.264-13.105 3.531-19.983 3.338zM315.991 270.405c-.01.748-.425 1.023-.811 1.299-2.728 1.957-5.44 3.938-8.204 5.843-1.282.883-1.559.81-2.451-.629-2.357-3.805-4.662-7.644-6.975-11.476-3.428-5.681-6.85-11.366-10.264-17.055-1.293-2.156-1.291-2.192.697-3.643 2.259-1.65 4.537-3.275 6.822-4.891 1.932-1.366 2.048-1.354 3.283.686 5.051 8.342 10.083 16.697 15.123 25.047.744 1.232 1.495 2.459 2.225 3.7.238.405.42.845.555 1.119zm49.445-30.78c0 5.427.016 10.855-.006 16.283-.01 2.54-.201 2.72-2.725 2.748-2.395.027-4.79.026-7.184.001-2.538-.026-2.754-.219-2.763-2.72-.023-6.944-.01-13.888-.01-20.833 0-4.15-.021-8.301.012-12.451.018-2.385.236-2.587 2.613-2.614 2.474-.029 4.948-.028 7.422 0 2.408.027 2.62.214 2.631 2.585.028 5.666.01 11.334.01 17.001zm193.811 284.916c-1.168.01-2.994.632-4.818 1.218-5.066 1.626-10.214 2.615-15.569 2.262-1.211-.079-2.402-.159-3.437-.866-1.284-.879-1.509-1.999-.692-3.308.906-1.451 1.635-1.7 3.098-.944 2.955 1.529 6.115 1.119 9.182.8 4.366-.456 8.705-1.196 13.037-1.927 2.073-.349 4.141-.295 6.216-.33 2.085-.036 3.512.956 4.323 2.821.445 1.023.769 2.1 1.131 3.158.83 2.423.943 2.504 3.14 1.367 4.403-2.278 8.784-4.601 13.173-6.905.142-.074.276-.162.416-.239 2.957-1.627 4.641-1.339 6.871 1.174.779.878.751 1.5-.199 2.19-.512.372-1.111.63-1.685.908-5.896 2.869-11.787 5.75-17.702 8.581-1.335.639-2.44 1.494-3.345 2.649-1.775 2.267-3.583 4.507-5.346 6.783-.881 1.137-1.766 2.295-1.932 3.8-.114 1.037-.793 1.354-1.683 1.255-2.061-.229-4.16-.279-6.15-.928-2.315-.754-2.746-2.227-1.199-4.201.786-1.003 1.718-1.895 2.616-2.806 1.853-1.88 3.699-3.767 5.604-5.594 1-.958 1.206-1.922.685-3.223-.712-1.778-1.248-3.628-1.863-5.445-.668-1.97-1.135-2.311-3.872-2.25zm-53.266 17.076c1.628-.112 2.783-.597 3.878-1.233.875-.508 1.688-.671 2.204.401.479.995-.063 1.682-.898 2.177-1.051.623-2.235.987-3.415 1.032-5.076.192-9.849 1.868-14.76 2.863-2.987.605-6.007.776-9.045.315-.881-.134-1.718-.37-2.505-.771-2.269-1.158-3.032-2.981-2.213-5.386.55-1.612 1.436-3.068 2.697-4.196 3.64-3.25 7.93-5.015 12.812-5.267 1.026-.053 2.095-.118 2.518 1.251.263.853.967.299 1.426.177 2.193-.582 4.421-.6 6.66-.519.319.012.641.017.956.064 1.542.238 3.053.638 3.725 2.224.657 1.552-.276 2.797-1.175 3.915-.784.977-1.743 1.812-2.865 2.953zm-11.143-7.333c-3.626.513-6.439 1.882-8.909 3.996-.916.783-1.746 1.656-2.205 2.782-.694 1.703.024 3.195 1.744 3.435 2.647.369 5.155-.095 7.47-1.564-2.681-3.725-2.544-4.383 1.9-8.649zm5.081 1.907c0-.796-.399-.944-.943-.819-1.361.313-3.13 2.911-2.887 4.238.079.43.395.833.803.555 1.475-1.005 2.389-2.463 3.027-3.974z" clip-rule="evenodd"/>
  <path fill-rule="evenodd" d="M446.767 544.224c-2.349.059-3.319-1.112-2.811-3.318.275-1.188.859-2.243 1.585-3.193 2.759-3.609 5.567-7.182 8.332-10.786.761-.993 1.587-1.213 2.674-.55 1.36.829 2.807 1.529 4.107 2.441 1.462 1.025 1.479 1.89.196 3.097-.635.599-1.375 1.085-2.066 1.625-2.386 1.866-4.775 3.727-7.154 5.602-1.388 1.094-2.688 2.271-3.273 4.018-.274.813-.863 1.09-1.59 1.064z" clip-rule="evenodd"/>
</svg>
