<?xml version="1.0" encoding="iso-8859-1"?>
<!--Logo Copyright www.DyiProd.com by www.AlexonBalangue.me-->
<!DOCTYPE svg PUBLIC "-//W3C//DTD SVG 1.1//EN" "http://www.w3.org/Graphics/SVG/1.1/DTD/svg11.dtd">
<svg version="1.1" id="Calque_1" xmlns="http://www.w3.org/2000/svg" xmlns:xlink="http://www.w3.org/1999/xlink" x="0px" y="0px"
	 width="1280px" height="800px" viewBox="0 0 1280 800" style="enable-background:new 0 0 1280 800;" xml:space="preserve">
<g>
	<g>
		<g>
			<path style="fill-rule:evenodd;clip-rule:evenodd;" d="M620.124,370.3c0-47.52,0.001-95.04-0.002-142.559
				c0-4.924-0.089-4.362,4.474-4.364c21.2-0.008,42.4-0.033,63.6,0.032c7.623,0.023,14.919,1.67,21.731,5.182
				c7.764,4.003,13.106,10.337,17.139,17.921c5.307,9.979,8.543,20.667,10.828,31.676c3.058,14.733,3.871,29.649,3.207,44.634
				c-0.545,12.335-2.238,24.518-6.097,36.322c-3.345,10.233-8.211,19.617-15.428,27.669c-1.279,1.427-1.492,2.8-1.129,4.592
				c8.231,40.597,16.424,81.203,24.621,121.807c0.174,0.862,0.34,1.727,0.476,2.596c0.152,0.978-0.266,1.539-1.28,1.583
				c-0.639,0.029-1.279,0.043-1.919,0.043c-13.199,0.002-26.399,0.004-39.6,0c-3.186-0.001-3.195-0.01-3.806-3.242
				c-0.979-5.186-1.941-10.375-2.917-15.562c-4.257-22.633-8.517-45.265-12.774-67.897c-1.464-7.779-2.917-15.562-4.392-23.339
				c-0.432-2.277-0.502-2.341-2.778-2.363c-2.96-0.03-5.921-0.039-8.88,0.007c-1.865,0.028-2.039,0.242-2.114,2.083
				c-0.03,0.719-0.011,1.44-0.011,2.16c0,34.639,0.001,69.278,0,103.918c0,4.513,0.229,4.234-4.114,4.235
				c-11.6,0.005-23.2,0.002-34.8,0.002c-0.64-0.001-1.281,0.02-1.919-0.015c-1.775-0.095-2.005-0.323-2.099-2.164
				c-0.044-0.878-0.018-1.76-0.018-2.64C620.124,465.18,620.124,417.74,620.124,370.3z M663.075,314.931
				c0,9.432-0.008,18.864,0.006,28.296c0.004,2.488,0.122,2.611,2.544,2.621c4.797,0.02,9.593-0.015,14.389,0.004
				c1.69,0.007,3.337-0.289,4.995-0.546c2.794-0.434,4.886-1.847,6.251-4.336c1.116-2.035,2.149-4.105,2.933-6.295
				c3.047-8.512,3.663-17.323,3.061-26.243c-0.416-6.181-1.952-12.104-4.429-17.822c-1.781-4.115-4.754-5.791-9.108-6.085
				c-5.992-0.405-11.979-0.313-17.969-0.365c-0.319-0.002-0.64,0.02-0.959,0.007c-1.227-0.053-1.747,0.561-1.708,1.75
				c0.021,0.639-0.005,1.279-0.005,1.918C663.074,296.866,663.074,305.898,663.075,314.931z"/>
		</g>
		<g>
			<path style="fill-rule:evenodd;clip-rule:evenodd;" d="M788.779,525.893c0.771,0.417,1.597,0.756,2.299,1.267
				c1.161,0.844,1.3,1.757,0.395,2.86c-0.652,0.797-1.442,1.499-2.249,2.147c-3.054,2.455-6.145,4.864-9.209,7.306
				c-1.32,1.052-2.477,2.268-3.458,3.645c-0.474,0.664-0.935,1.373-0.543,2.207c0.384,0.819,1.224,0.637,1.915,0.635
				c3.435-0.011,6.881,0.19,10.287-0.464c0.453-0.087,0.985,0.027,1.311-0.548c-0.05-0.174-0.066-0.421-0.184-0.604
				c-1.61-2.527-1.54-4.248,0.444-6.449c2.865-3.176,6.605-4.669,10.726-5.37c3.29-0.561,6.534-0.37,9.697,0.716
				c1.067,0.366,1.799,0.061,2.528-0.753c2.938-3.271,6.131-6.325,8.579-10.006c0.694-1.043,1.475-1.349,2.621-0.958
				c1.44,0.489,2.887,0.965,4.173,1.801c2.144,1.394,2.288,2.705,0.402,4.377c-1.255,1.113-2.613,2.109-3.92,3.165
				c-4.294,3.47-8.536,6.998-12.32,11.036c-0.591,0.631-1.319,1.18-1.549,2.149c0.538,0.75,1.285,0.464,1.92,0.269
				c2.308-0.709,4.434-1.817,6.465-3.112c0.554-0.353,0.947-0.811,1.178-1.455c0.86-2.41,2.703-3.897,4.874-5.059
				c2.791-1.494,5.794-2.335,8.922-2.598c2.064-0.173,4.156-0.082,6.233-0.008c0.865,0.03,1.749,0.239,2.577,0.512
				c3.178,1.048,3.74,3.315,1.221,5.473c-3.966,3.396-8.541,4.073-13.481,2.522c-0.653-0.205-1.271-0.868-1.99-0.249
				c-0.813,0.7-1.336,1.596-1.394,2.692c-0.037,0.722,0.377,1.179,1.007,1.487c0.737,0.361,1.524,0.449,2.324,0.524
				c4.26,0.401,8.27-0.472,12.085-2.351c1.598-0.786,3.006-1.687,3.689-3.523c0.475-1.273,1.528-2.232,2.677-3.011
				c5.149-3.492,10.729-4.822,16.86-3.324c1.069,0.261,2.134,0.772,2.97-0.521c0.153-0.238,0.729-0.258,1.116-0.282
				c1.852-0.118,3.682,0.061,5.451,0.628c2.444,0.782,2.729,1.999,0.875,3.733c-1.692,1.584-3.449,3.101-5.133,4.693
				c-0.634,0.6-1.163,1.315-1.7,2.009c-0.242,0.313-0.429,0.734-0.15,1.104c0.271,0.359,0.729,0.323,1.111,0.221
				c1.556-0.416,3.067-0.976,4.314-2.018c3.13-2.613,6.293-5.192,9.211-8.049c0.869-0.851,1.727-1.675,1.052-3.108
				c-0.333-0.706-0.025-1.402,0.586-1.926c1.225-1.049,4.146-1.143,5.448-0.162c0.634,0.478,0.974,1.074,0.615,1.866
				c-0.192,0.427-0.457,0.819-0.661,1.18c0.44,0.822,1.243,0.844,1.874,1.135c1.813,0.838,3.699,1.553,5.246,2.861
				c2.013,1.703,2.294,3.525,0.9,5.727c-1.239,1.959-2.955,3.367-5.162,4.097c-5.541,1.829-11.148,2.021-16.738,0.319
				c-1.383-0.421-2.577-0.48-3.935-0.034c-1.825,0.599-3.727,0.924-5.667,0.814c-1.716-0.097-3.371-0.378-4.379-2.005
				c-0.404-0.653-0.841-0.571-1.401-0.24c-0.688,0.405-1.386,0.804-2.115,1.124c-3.846,1.689-7.67,1.605-11.261-0.581
				c-1.354-0.825-2.382-0.742-3.759-0.197c-5.553,2.199-11.279,2.833-17.161,1.505c-1.729-0.392-3.42-0.907-4.842-1.995
				c-0.819-0.627-1.547-0.574-2.443-0.226c-2.686,1.042-5.417,1.938-8.275,2.407c-1.115,0.183-2.223,0.268-3.343,0.156
				c-1.796-0.178-3.325-0.699-3.357-2.985c-1.158,0.048-1.894,0.736-2.705,1.172c-3.166,1.7-6.396,2.506-9.878,0.999
				c-0.801-0.346-1.48-0.34-2.109,0.46c-1.342,1.708-3.301,2.256-5.332,2.319c-5.194,0.161-10.393,0.259-15.58-0.254
				c-2.791-0.275-5.591-0.224-8.389-0.096c-0.391,0.018-0.856,0.14-1.073-0.282c-0.274-0.534,0.12-0.922,0.493-1.212
				c1.185-0.922,2.575-1.254,4.047-1.26c3.119-0.014,6.239-0.004,9.358-0.004c0.037-0.127-0.063-0.14-0.278-0.172
				c-3.813-0.58-4.642-2.068-3.021-5.589c1.114-2.42,2.754-4.504,4.567-6.43c2.084-2.211,4.256-4.34,6.382-6.512
				c0.543-0.554,1.061-1.133,1.941-2.078c-2.58,0-4.699,0.002-6.819-0.001c-0.457-0.001-1.048,0.25-1.307-0.263
				c-0.309-0.611,0.185-1.068,0.617-1.401c1.525-1.173,3.316-1.546,5.189-1.553c3.6-0.012,7.199,0.02,10.798,0.023
				c4.399,0.006,8.798,0.002,13.224-0.206c-1.284-0.244-2.576-0.455-3.852-0.737c-9.266-2.051-16.675-7.09-22.829-14.167
				c-5.896-6.779-10.149-14.549-13.611-22.765c-6.051-14.361-10.028-29.337-12.933-44.617c-2.018-10.611-3.447-21.3-4.37-32.063
				c-0.759-8.845-1.232-17.696-1.475-26.571c-0.15-5.517-0.379-11.034-0.218-16.545c0.373-12.702,0.813-25.397,2.144-38.055
				c1.82-17.301,4.782-34.367,9.816-51.032c3.291-10.893,7.233-21.534,13.25-31.283c4.499-7.289,9.865-13.771,17.118-18.524
				c15.474-10.139,35.817-8.895,49.898,4.661c6.669,6.421,11.498,14.117,15.267,22.497c6.398,14.23,10.312,29.228,13.533,44.433
				c2.372,11.199,3.992,22.516,5.095,33.899c0.871,8.989,1.538,18,1.626,27.043c0.034,3.516,0.354,7.033,0.291,10.545
				c-0.233,13.186-0.49,26.367-1.671,39.522c-1.555,17.318-4.179,34.439-8.672,51.249c-3.166,11.849-7.017,23.447-12.928,34.262
				c-3.084,5.643-6.729,10.877-11.269,15.46c-6.926,6.993-15.182,11.369-24.994,12.63c-1.244,0.159-2.26,0.431-3.076,1.515
				c-1.11,1.473-2.781,2.123-4.562,2.407c-4.529,0.725-9.079,0.638-13.634,0.276c-1.498-0.119-3.002-0.183-4.503-0.271
				C788.758,525.645,788.769,525.769,788.779,525.893z M790.713,370.014c-0.021,8.632-0.177,17.263,0.312,25.896
				c0.524,9.263,1.177,18.504,2.581,27.676c1.175,7.677,2.721,15.27,5.714,22.492c1.204,2.904,2.707,5.629,4.823,7.964
				c3.785,4.176,8.8,4.049,12.43-0.263c1.242-1.476,2.274-3.088,3.127-4.816c3.001-6.086,4.574-12.609,5.829-19.219
				c2.437-12.837,3.431-25.844,3.744-38.862c0.436-18.059,0.626-36.132-0.716-54.182c-0.575-7.737-1.277-15.45-2.566-23.102
				c-1.186-7.031-2.723-13.972-5.624-20.532c-1.138-2.57-2.499-5.013-4.521-7.017c-3.222-3.193-7.298-3.328-10.756-0.364
				c-1.79,1.534-3.059,3.462-4.167,5.519c-2.644,4.906-4.175,10.198-5.408,15.588c-3.26,14.251-4.158,28.774-4.755,43.311
				C790.486,356.73,790.713,363.377,790.713,370.014z M867.207,534.918c-3.402,0.353-6.608,1.378-9.603,3.086
				c-1.045,0.597-1.978,1.345-2.757,2.27c-1.178,1.397-1.557,2.863-0.959,3.68c0.586,0.802,2.068,0.868,3.777,0.007
				c3.766-1.897,6.909-4.548,9.342-8.011C867.19,535.689,867.378,535.419,867.207,534.918z M884.087,544.944
				c3.189,0.043,5.613-1.508,6.675-4.105c0.852-2.083,0.497-3.408-1.198-4.887c-0.826-0.721-1.521-0.778-2.207,0.126
				c-1.887,2.482-3.934,4.797-6.575,6.526c-0.742,0.486-0.595,1.091,0.116,1.488C881.958,544.686,883.141,544.867,884.087,544.944z
				 M810.107,535.107c-3.366,0.322-6.469,1.268-9.387,2.813c-1.444,0.764-2.65,1.805-3.566,3.138
				c-0.621,0.904-1.453,1.976-0.544,3.033c0.78,0.906,1.948,0.521,2.904,0.094C803.923,542.218,807.298,539.018,810.107,535.107z
				 M831.158,538.489c3.374,0.236,6.348-0.702,9.038-2.576c0.131-0.091,0.258-0.19,0.37-0.302c0.282-0.278,0.611-0.559,0.413-1.016
				c-0.147-0.338-0.491-0.38-0.81-0.391c-0.397-0.014-0.81-0.053-1.193,0.027C835.961,534.863,833.393,536.347,831.158,538.489z"/>
		</g>
		<g>
			<path style="fill-rule:evenodd;clip-rule:evenodd;" d="M884.243,370.37c0-47.508,0.004-95.017-0.006-142.526
				c-0.001-5.237,0.164-4.457,4.395-4.462c15.196-0.021,30.393-0.015,45.589,0.014c7.096,0.013,13.998,1.233,20.697,3.57
				c10.234,3.57,17.887,10.341,23.821,19.245c5.439,8.163,9.57,16.98,13.169,26.074c6.45,16.296,10.716,33.142,12.914,50.524
				c1.264,9.999,2.021,20.027,2.466,30.098c0.364,8.238,0.406,16.469,0.277,24.701c-0.153,9.75-0.763,19.48-1.74,29.189
				c-1.38,13.709-3.663,27.248-7.155,40.579c-2.905,11.091-6.666,21.881-11.651,32.209c-4.3,8.908-9.586,17.151-16.761,24.098
				c-7.849,7.599-17.06,12.304-27.945,13.582c-1.582,0.187-3.193,0.165-4.792,0.166c-16.476,0.011-32.952,0.008-49.428,0.006
				c-3.84,0-3.849-0.004-3.849-3.82C884.242,465.867,884.243,418.119,884.243,370.37z M926.545,369.592
				c0,26.554,0,53.108,0.001,79.662c0,0.8,0.028,1.6,0.011,2.399c-0.028,1.228,0.605,1.721,1.775,1.714
				c1.919-0.011,3.842-0.059,5.758,0.021c5.404,0.224,9.545-2.151,12.916-6.159c4.148-4.935,6.573-10.764,8.501-16.805
				c5.313-16.657,7.52-33.842,8.198-51.231c0.336-8.622,0.293-17.259-0.246-25.896c-0.544-8.712-1.507-17.357-3.086-25.935
				c-1.479-8.033-3.367-15.963-6.345-23.592c-1.544-3.959-3.31-7.816-6.063-11.115c-3.561-4.266-7.943-6.88-13.7-6.676
				c-1.357,0.048-2.719,0.002-4.078,0.003c-3.639,0.004-3.642,0.005-3.642,3.708C926.545,316.324,926.545,342.958,926.545,369.592z"
				/>
		</g>
		<g>
			<path style="fill-rule:evenodd;clip-rule:evenodd;" d="M51.323,370.463c0-47.592,0.002-95.184-0.003-142.776
				c0-4.827-0.041-4.308,4.289-4.31c15.117-0.008,30.235,0.018,45.353,0.005c5.553-0.005,10.998,0.778,16.356,2.168
				c11.729,3.041,20.901,9.646,27.71,19.686c6.104,9,10.65,18.753,14.549,28.852c6.08,15.746,10.107,32.01,12.232,48.741
				c1.007,7.929,1.655,15.892,2.18,23.874c0.442,6.71,0.485,13.427,0.613,20.131c0.151,7.899-0.133,15.82-0.569,23.727
				c-0.361,6.548-0.856,13.081-1.59,19.594c-2.695,23.903-7.96,47.144-18.267,69.021c-4.215,8.946-9.496,17.227-16.61,24.215
				c-7.84,7.699-17.129,12.485-28.085,13.863c-1.343,0.17-2.713,0.176-4.071,0.176c-16.958,0.012-33.915,0.012-50.872,0.007
				c-3.146-0.001-3.21-0.062-3.211-3.235c-0.006-22.236-0.004-44.473-0.004-66.709C51.323,421.814,51.323,396.139,51.323,370.463z
				 M93.625,369.596c0,26.466,0,52.932,0,79.396c0,0.8-0.03,1.603,0.021,2.398c0.106,1.656,0.337,1.917,2.037,1.962
				c2.157,0.059,4.317,0.004,6.476,0.02c2.209,0.016,4.262-0.559,6.216-1.559c2.925-1.496,5.144-3.787,7.016-6.409
				c3.143-4.402,5.236-9.328,6.893-14.446c5.034-15.549,7.367-31.58,8.161-47.837c0.381-7.811,0.686-15.628,0.274-23.48
				c-0.44-8.388-0.958-16.753-2.174-25.061c-1.426-9.743-3.459-19.355-6.759-28.661c-1.5-4.232-3.24-8.363-5.912-12.008
				c-3.758-5.127-8.556-8.339-15.226-7.938c-1.036,0.062-2.078,0.006-3.118,0.007c-3.902,0.003-3.905,0.004-3.905,3.978
				C93.624,316.504,93.625,343.05,93.625,369.596z"/>
		</g>
		<g>
			<path style="fill-rule:evenodd;clip-rule:evenodd;" d="M495.757,370.402c0-47.676,0-95.352-0.001-143.027
				c0-4.358-0.113-4,4.094-4.001c19.198-0.001,38.396,0.011,57.595,0.012c4.908,0,9.716,0.701,14.454,1.951
				c9.303,2.453,16.54,7.791,21.961,15.68c6.185,9,10.287,18.961,13.368,29.359c2.759,9.31,4.144,18.872,4.979,28.54
				c0.468,5.427,0.638,10.869,0.66,16.288c0.03,7.342-0.333,14.694-1.109,22.022c-0.945,8.92-2.301,17.761-4.398,26.479
				c-2.065,8.583-4.805,16.93-9.257,24.616c-2.773,4.79-6.013,9.245-9.796,13.303c-5.184,5.562-11.607,8.641-19.074,9.676
				c-4.28,0.594-8.575,0.953-12.902,0.93c-4.959-0.028-9.919-0.027-14.878,0.008c-2.092,0.015-2.288,0.259-2.355,2.378
				c-0.025,0.8-0.008,1.6-0.008,2.399c0,32.077-0.007,64.154,0.007,96.231c0.002,4.863-0.271,4.177-4.2,4.185
				c-11.679,0.022-23.358,0.008-35.037,0.008c-0.64,0-1.281,0.017-1.919-0.013c-1.869-0.087-2.07-0.271-2.163-2.076
				c-0.045-0.878-0.018-1.76-0.018-2.64C495.757,465.273,495.757,417.838,495.757,370.402z M538.082,317.749
				c0,9.914-0.011,19.828,0.008,29.742c0.005,2.433,0.175,2.582,2.604,2.594c4.157,0.021,8.315-0.014,12.472,0.01
				c5.848,0.034,9.875-2.646,12.158-8.018c1.604-3.772,2.694-7.69,3.417-11.714c1.398-7.778,1.351-15.597,0.407-23.405
				c-0.616-5.1-1.829-10.07-4.359-14.619c-2.45-4.406-6.06-6.895-11.248-6.829c-3.277,0.042-6.556-0.005-9.834-0.007
				c-1.279,0-2.558,0.023-3.837,0.018c-1.195-0.005-1.754,0.604-1.768,1.768c-0.008,0.72-0.021,1.439-0.021,2.159
				C538.079,298.881,538.08,308.315,538.082,317.749z"/>
		</g>
		<g>
			<path style="fill-rule:evenodd;clip-rule:evenodd;" d="M330.743,421.344c-0.001-7.039-0.063-14.08,0.04-21.118
				c0.029-1.968-0.667-2.991-2.437-3.837c-12.198-5.831-22.088-14.336-29.261-25.855c-5.24-8.414-8.537-17.521-9.26-27.464
				c-1.678-23.095,7.378-41.442,25.097-55.743c11.039-8.91,23.833-13.909,37.908-15.504c21.038-2.385,40.241,2.419,57.036,15.473
				c14.136,10.987,22.808,25.399,24.979,43.301c1.933,15.941-2.204,30.448-11.487,43.491c-6.772,9.515-15.552,16.714-25.992,21.856
				c-2.096,1.032-2.863,2.266-2.846,4.589c0.099,13.438,0.053,26.878,0.045,40.318c-0.003,4.761-0.993,9.226-4.143,12.977
				c-2.487,2.961-5.546,4.738-9.564,4.621c-6.157-0.179-12.313,0.31-18.465,0.219c-5.996-0.09-11.994-0.38-17.986-0.192
				c-5.101,0.159-8.464-2.402-11.008-6.412c-1.939-3.058-2.646-6.491-2.651-10.078C330.737,435.104,330.744,428.224,330.743,421.344
				z"/>
		</g>
		<g>
			<path style="fill-rule:evenodd;clip-rule:evenodd;" d="M228.932,313.085c1.953-8.047,3.822-15.736,5.686-23.427
				c5.085-20.983,10.169-41.966,15.252-62.95c0.075-0.311,0.132-0.626,0.215-0.936c0.614-2.298,0.698-2.393,3.108-2.395
				c11.519-0.012,23.037-0.006,34.556-0.006c0.24,0,0.48-0.007,0.72,0.007c1.723,0.099,1.956,0.331,1.53,2.076
				c-0.796,3.262-1.688,6.501-2.542,9.75c-10.548,40.139-21.099,80.278-31.646,120.417c-3.17,12.065-6.313,24.138-9.513,36.195
				c-0.399,1.504-0.418,3-0.418,4.516c-0.002,38.876-0.003,77.751,0,116.627c0,4.953,0.135,4.468-4.377,4.473
				c-11.359,0.014-22.718,0.005-34.077,0.005c-0.64,0-1.28,0.013-1.919-0.006c-2.211-0.063-2.392-0.248-2.462-2.546
				c-0.024-0.799-0.008-1.6-0.008-2.399c0-38.636-0.006-77.271,0.014-115.908c0.001-2.177-0.248-4.283-0.803-6.393
				c-11.166-42.458-22.302-84.923-33.45-127.385c-3.086-11.756-6.19-23.508-9.285-35.262c-0.102-0.387-0.193-0.776-0.29-1.164
				c-0.746-2.983-0.745-2.999,2.227-3c14.158-0.006,28.317-0.006,42.475,0c2.801,0.001,2.822,0.013,3.503,2.797
				c3.723,15.225,7.435,30.452,11.15,45.678c3.185,13.051,6.37,26.103,9.556,39.153
				C228.282,311.618,228.337,312.265,228.932,313.085z"/>
		</g>
		<g>
			<path style="fill-rule:evenodd;clip-rule:evenodd;" d="M1113.075,314.598c-4.295-0.883-8.468-1.601-12.567-2.696
				c-10.341-2.763-19.575-7.439-26.724-15.628c-5.778-6.619-8.92-14.32-9.205-23.151c-0.477-14.765,6.256-25.762,17.9-34.143
				c8.528-6.138,18.188-9.62,28.396-11.711c7.222-1.479,14.528-2.276,21.895-2.402c6.235-0.107,12.47-0.135,18.694,0.459
				c14.264,1.36,27.881,4.786,40.179,12.449c4.438,2.766,8.41,6.091,11.694,10.205c6.07,7.604,8.646,16.347,8.171,25.953
				c-0.513,10.363-4.424,19.231-12.351,26.152c-4.334,3.784-9.317,6.459-14.623,8.575c-6.651,2.652-13.606,4.116-20.656,5.19
				c-0.293,0.044-0.633-0.029-0.954,0.464c1.111,0.259,2.158,0.517,3.211,0.748c8.641,1.896,16.937,4.724,24.653,9.118
				c6.136,3.493,11.424,7.914,15.257,13.933c8.899,13.977,7.981,35.677-8.703,48.101c-5.452,4.06-11.505,6.909-17.825,9.25
				c-9.197,3.408-18.704,5.399-28.47,6.368c-4.149,0.412-8.319,0.622-12.444,0.603c-18.414-0.086-36.363-2.61-52.846-11.598
				c-7.693-4.195-14.003-9.818-17.757-17.923c-5.743-12.397-4.948-28.857,6.821-40.645c3.412-3.416,7.374-6.117,11.636-8.393
				c7.749-4.14,15.977-6.923,24.536-8.791C1111.69,314.931,1112.382,314.76,1113.075,314.598z M1136.785,259.631
				c-4.351-0.231-9.458,0.167-14.555,0.563c-4.459,0.347-8.896,0.984-13.174,2.411c-2.464,0.822-4.71,2.021-6.483,3.954
				c-3.154,3.438-2.765,8.295,0.878,11.19c1.645,1.307,3.515,2.2,5.488,2.901c4.172,1.482,8.51,2.285,12.883,2.65
				c4.469,0.374,4.072,0.844,3.759,4.705c-0.633,7.804-1.378,15.599-2.065,23.398c-0.13,1.482,0.119,1.723,1.554,1.6
				c5.256-0.452,10.518-0.814,15.796-0.7c2.235,0.048,4.466,0.289,6.701,0.351c2.242,0.062,2.281,0.009,2.085-2.264
				c-0.612-7.084-1.256-14.166-1.889-21.249c-0.156-1.751-0.326-3.5-0.466-5.252c-0.156-1.943,0.135-2.282,2.011-2.391
				c0.558-0.032,1.119-0.025,1.679-0.026c4.083-0.006,8.143-0.331,12.172-0.971c3.418-0.543,6.699-1.474,9.613-3.472
				c3.482-2.388,3.752-7.975,0.491-10.636c-1.122-0.916-2.309-1.719-3.63-2.313c-2.563-1.151-5.234-1.968-7.988-2.517
				C1153.692,259.977,1145.647,259.516,1136.785,259.631z M1138.394,345.902c-0.399,0-0.799,0.002-1.198,0
				c-7.924-0.055-15.82,0.27-23.573,2.082c-3.585,0.838-7.058,1.961-10.138,4.138c-3.88,2.743-3.82,8.634,0.308,11.083
				c2.438,1.446,4.992,2.499,7.701,3.23c5.738,1.549,11.62,2.207,17.528,2.365c7.742,0.208,15.492,0.363,23.23-0.381
				c4.785-0.46,9.523-1.125,14.115-2.552c2.748-0.854,5.443-1.9,7.5-4.078c2.238-2.37,2.307-6.04,0.135-8.483
				c-1.135-1.276-2.557-2.162-4.065-2.918c-2.958-1.482-6.134-2.269-9.355-2.897C1153.25,346.061,1145.834,345.81,1138.394,345.902z
				"/>
		</g>
		<g>
			<path style="fill-rule:evenodd;clip-rule:evenodd;" d="M1151.941,461.911c6.714,1.451,13.426,2.906,20.141,4.354
				c11.407,2.46,22.816,4.916,34.225,7.375c0.469,0.102,0.929,0.248,1.401,0.326c1.151,0.189,1.632,0.883,1.598,2.01
				c-0.015,0.479,0.009,0.959,0.009,1.439c0.001,12.318,0.004,24.637-0.001,36.955c-0.001,3.518-0.01,3.524-3.633,3.525
				c-39.594,0.014-79.188,0.027-118.783,0.035c-5.437,0.001-10.863,0.497-16.303,0.292c-0.719-0.027-1.441-0.013-2.157-0.073
				c-0.918-0.076-1.474-0.55-1.478-1.535c-0.001-0.319-0.026-0.639-0.027-0.959c-0.009-8.635,0.069-17.271-0.287-25.903
				c-0.014-0.319-0.004-0.64,0-0.96c0.043-3.056,0.218-3.249,3.292-3.252c19.117-0.017,38.234-0.023,57.352-0.033
				c0.639,0,1.277,0,1.974-0.232c-1.215-0.3-2.422-0.633-3.644-0.896c-18.754-4.039-37.511-8.068-56.266-12.102
				c-2.408-0.519-2.676-0.765-2.69-3.156c-0.039-6.159-0.036-12.318-0.005-18.478c0.011-2.138,0.172-2.335,2.429-2.825
				c8.591-1.87,17.191-3.698,25.789-5.536c10.631-2.271,21.263-4.535,31.894-6.808c0.536-0.114,1.062-0.277,1.569-0.643
				c-1.317,0-2.634-0.001-3.95,0c-18.078,0.015-36.155,0.029-54.232,0.043c-3.498,0.003-3.53-0.014-3.535-3.409
				c-0.01-7.279-0.004-14.559,0-21.837c0.001-0.64,0.017-1.28,0.073-1.917c0.084-0.922,0.561-1.468,1.544-1.469
				c0.399-0.001,0.8-0.025,1.199-0.028c16.232-0.099,32.466-0.246,48.699-0.281c29.035-0.062,58.071-0.051,87.107-0.083
				c4.502-0.005,4.065,0.125,4.068,4.073c0.009,11.918,0.004,23.836,0.004,35.755c0,0.479,0.007,0.96-0.005,1.439
				c-0.054,2.253-0.11,2.385-2.349,2.862c-5.003,1.067-10.019,2.075-15.027,3.114c-12.992,2.696-25.982,5.397-38.974,8.099
				c-0.367,0.076-0.729,0.181-1.093,0.271C1151.894,461.614,1151.918,461.763,1151.941,461.911z"/>
		</g>
		<g>
			<path style="fill-rule:evenodd;clip-rule:evenodd;" d="M480.194,407.287c0,35.356,0,70.714,0,106.07
				c0,4.313,0.176,4.078-4.031,4.08c-10.879,0.003-21.758,0-32.637,0c-0.56,0-1.121,0.016-1.68-0.012
				c-1.811-0.089-2.039-0.307-2.15-2.12c-0.045-0.718-0.02-1.44-0.02-2.159c-0.001-70.714-0.001-141.427,0-212.141
				c0-4.105,0.003-4.108,4.054-4.109c10.959-0.001,21.918-0.003,32.877,0.001c3.578,0.002,3.585,0.012,3.586,3.599
				C480.195,336.094,480.194,371.691,480.194,407.287z"/>
		</g>
		<g>
			<path style="fill-rule:evenodd;clip-rule:evenodd;" d="M439.207,249.131c-2.635,4.323-5.175,8.479-7.703,12.642
				c-2.822,4.65-5.631,9.308-8.45,13.959c-0.332,0.547-0.692,1.077-1.036,1.616c-0.463,0.727-1.066,0.973-1.809,0.441
				c-2.861-2.049-5.71-4.114-8.563-6.175c-0.919-0.664-0.803-1.442-0.282-2.3c1.33-2.188,2.63-4.393,3.958-6.581
				c4.399-7.248,8.806-14.492,13.21-21.736c0.208-0.342,0.402-0.694,0.634-1.019c0.925-1.294,1.135-1.37,2.514-0.419
				c2.106,1.454,4.158,2.987,6.238,4.478c0.38,0.272,0.727,0.644,1.437,0.538c0.517-0.691,0.307-1.598,0.309-2.433
				c0.02-7.04,0.011-14.08,0.012-21.12c0-0.64-0.028-1.283,0.027-1.919c0.13-1.478,0.415-1.744,1.929-1.867
				c0.478-0.039,0.959-0.021,1.439-0.021c11.2-0.001,22.399-0.004,33.599,0.001c3.509,0.002,3.521,0.013,3.521,3.422
				c0.004,21.919,0.002,43.839,0.002,65.758c0,0.24,0.003,0.48-0.002,0.72c-0.052,2.489-0.215,2.688-2.805,2.692
				c-11.6,0.018-23.199,0.016-34.799,0.003c-2.743-0.003-2.904-0.183-2.908-3.085c-0.012-9.04-0.005-18.08-0.005-27.119
				c0-3.04,0.002-6.08-0.007-9.12C439.667,250.11,439.755,249.697,439.207,249.131z"/>
		</g>
		<g>
			<path style="fill-rule:evenodd;clip-rule:evenodd;" d="M1057.008,480.072c0,11.272,0.004,22.544-0.002,33.816
				c-0.002,3.541-0.014,3.547-3.629,3.548c-11.513,0.003-23.024,0.001-34.536,0.001c-0.48,0-0.961,0.013-1.439-0.01
				c-1.841-0.089-2.061-0.295-2.185-2.086c-0.038-0.558-0.02-1.119-0.02-1.679c-0.001-22.385-0.002-44.77,0.001-67.154
				c0-3.773,0.008-3.776,3.867-3.776c11.353-0.002,22.704-0.001,34.057-0.001c0.56,0.001,1.12-0.015,1.679,0.009
				c1.854,0.081,2.067,0.27,2.183,2.077c0.056,0.876,0.024,1.758,0.024,2.637C1057.009,458.327,1057.008,469.199,1057.008,480.072z"
				/>
		</g>
		<g>
			<path style="fill-rule:evenodd;clip-rule:evenodd;" d="M980.75,529.7c1.513-1.293,3.196-1.75,5.127-1.079
				c1.688,0.586,2.057,1.173,1.313,2.805c-0.457,1.004-0.053,1.304,0.725,1.571c1.285,0.44,2.58,0.855,3.861,1.306
				c0.678,0.238,1.38,0.452,1.995,0.808c1.83,1.058,1.969,2.392,0.387,3.799c-1.254,1.116-2.599,2.13-3.856,3.241
				c-0.576,0.508-1.304,0.933-1.513,1.934c0.983,0.221,1.912,0.028,2.777-0.271c3.289-1.135,6.134-2.769,8.407-5.634
				c3.522-4.439,8.49-6.348,14.089-6.627c0.953-0.047,1.962-0.071,2.238,1.25c0.161,0.764,0.756,0.373,1.163,0.265
				c2.346-0.621,4.732-0.748,7.137-0.596c1.792,0.113,3.698,0.36,4.469,2.219c0.83,2.003-0.572,3.47-1.803,4.871
				c-0.551,0.629-1.425,0.96-2.037,2.199c2.052-0.648,3.712-0.954,4.809-2.585c2.742-4.076,6.912-5.771,11.514-6.617
				c3.27-0.601,6.539-0.49,9.704,0.608c1.171,0.406,1.975,0.115,2.759-0.75c2.9-3.197,5.919-6.291,8.471-9.79
				c1.082-1.481,1.203-1.525,2.98-0.967c1.298,0.408,2.569,0.901,3.736,1.612c2.24,1.367,2.394,2.858,0.42,4.526
				c-1.589,1.341-3.258,2.585-4.861,3.908c-3.823,3.157-7.678,6.283-11.084,9.903c-0.677,0.72-2.003,1.528-1.406,2.493
				c0.628,1.018,1.882,0.087,2.824-0.206c4.941-1.535,8.182-5.11,10.973-9.214c0.089-0.132,0.166-0.273,0.235-0.417
				c1.171-2.438,1.167-2.424,3.862-1.864c1.102,0.229,2.192,0.481,3.182,1.027c1.824,1.005,2.016,2.182,0.455,3.544
				c-1.564,1.366-3.266,2.572-4.873,3.891c-0.8,0.656-1.601,1.342-2.258,2.134c-0.619,0.747-0.32,1.371,0.65,1.505
				c1.123,0.155,2.223,0.001,3.298-0.4c1.821-0.678,3.523-1.594,4.94-2.897c2.632-2.423,5.41-4.763,6.582-8.349
				c0.215-0.657,0.723-0.83,1.318-0.776c1.923,0.174,3.816,0.526,5.506,1.505c1.678,0.972,1.785,2.12,0.25,3.394
				c-2.215,1.837-4.528,3.555-6.787,5.341c-0.665,0.526-1.465,0.943-1.864,1.904c0.999,0.478,1.829,0.001,2.605-0.224
				c3.518-1.017,6.668-2.578,8.84-5.752c1.382-2.018,3.345-3.438,5.666-4.271c4.667-1.675,9.449-2.306,14.387-1.509
				c1.219,0.197,2.339,0.559,3.228,1.435c1.211,1.196,1.132,2.632-0.169,3.738c-1.994,1.695-7.804,2.334-10.128,1.112
				c-0.286-0.15-0.611-0.342-0.613-0.672c-0.001-0.489,0.419-0.646,0.826-0.688c1.529-0.158,2.973-0.633,4.375-1.217
				c0.784-0.327,1.702-0.521,2.182-1.533c-0.873-0.692-1.806-0.432-2.683-0.154c-3.732,1.183-6.939,3.23-9.689,6.005
				c-0.168,0.17-0.322,0.356-0.461,0.552c-1.455,2.035-0.873,3.631,1.581,3.887c4.375,0.455,8.608-0.239,12.634-2.055
				c0.738-0.333,1.376-0.805,1.781-1.543c2.257-4.113,5.409-7.513,8.632-10.859c0.371-0.384,0.911-0.688,0.902-1.37
				c-0.657-0.769-1.588-0.603-2.432-0.644c-2.956-0.143-5.914-0.199-8.874-0.064c-0.637,0.028-1.291,0.075-1.911-0.033
				c-0.673-0.117-0.663-0.608-0.272-1.048c0.562-0.63,1.36-0.838,2.146-0.969c3.329-0.554,6.68-0.714,10.035-0.307
				c4.204,0.511,4.912,0.28,6.91-3.441c0.663-1.234,1.344-1.419,2.451-1.036c1.133,0.391,2.257,0.811,3.369,1.256
				c1.891,0.759,3.482,1.753,2.747,4.449c2.71-0.411,5.188-0.325,7.508-1.382c1.493-0.681,2.324-0.407,3.274,0.866
				c0.86,1.154,0.788,2.178-0.479,2.771c-1.158,0.543-1.911,1.389-2.646,2.331c-0.888,1.14-1.924,1.502-3.364,0.951
				c-1.706-0.651-3.532-0.887-5.234-1.67c-1.558-0.717-3.227-0.596-4.725,0.616c-4.178,3.378-8.065,7.049-11.557,11.135
				c-0.207,0.242-0.418,0.492-0.567,0.771c-0.413,0.765-0.135,1.26,0.718,1.246c0.392-0.006,0.79-0.106,1.17-0.219
				c3.609-1.067,6.83-2.657,8.809-6.123c1.063-1.86,2.747-3.348,3.307-5.521c0.192-0.745,0.79-0.991,1.493-0.884
				c1.814,0.275,3.662,0.443,5.341,1.272c1.851,0.913,2.051,2.137,0.469,3.505c-1.813,1.569-3.734,3.012-5.594,4.526
				c-0.973,0.793-1.916,1.622-2.646,2.676c0.278,0.182,0.414,0.348,0.524,0.332c4.296-0.619,8.178-1.988,10.934-5.652
				c3.677-4.886,8.804-6.938,14.748-7.268c0.634-0.035,1.585-0.095,1.731,0.513c0.405,1.68,1.455,1.054,2.371,0.833
				c2.206-0.531,4.436-0.538,6.675-0.4c0.475,0.029,0.957,0.104,1.414,0.233c3.018,0.856,3.72,2.813,2.023,5.454
				c-0.782,1.219-1.998,2.016-2.891,3.196c1.376-0.016,2.604-0.337,3.529-1.415c1.25-1.454,2.493-2.916,3.729-4.382
				c0.681-0.806,1.278-1.644,1.112-2.8c-0.122-0.856,0.409-1.142,1.146-1.154c2.636-0.046,5.323-0.29,7.671,1.276
				c0.846,0.563,1.622,0.508,2.493,0.204c2.324-0.811,4.731-0.664,7.128-0.559c1.126,0.05,2.222,0.314,3.255,0.759
				c2.318,0.997,2.52,2.52,0.52,4.118c-2.061,1.647-4.173,3.231-6.252,4.856c-0.614,0.479-1.288,0.926-1.541,1.698
				c0.455,0.739,1.036,0.436,1.541,0.314c2.672-0.644,5.171-1.664,7.313-3.44c0.309-0.255,0.605-0.534,0.949-0.73
				c0.837-0.479,1.897-0.205,2.533,0.614c0.672,0.866,0.199,1.525-0.46,2.047c-0.686,0.541-1.428,1.031-2.2,1.438
				c-2.934,1.547-6.085,2.423-9.359,2.843c-1.434,0.185-2.884,0.163-4.255-0.408c-1.634-0.683-2.105-1.778-1.511-3.469
				c0.377-1.067,1.027-1.983,1.646-2.918c0.794-1.2,1.59-2.399,2.354-3.617c0.305-0.485,0.508-1.038,0.055-1.553
				c-0.426-0.483-1.016-0.447-1.563-0.313c-1.021,0.252-1.964,0.734-2.773,1.384c-3.059,2.448-6.095,4.924-9.103,7.434
				c-0.667,0.557-1.226,1.261-1.76,1.953c-1.14,1.476-2.291,1.939-3.524,0.602c-2.834-3.072-6.098-1.815-9.081-1.046
				c-3.722,0.962-7.389,1.992-11.244,2.267c-1.939,0.139-3.831-0.109-5.717-0.417c-1.108-0.181-2.213-0.633-2.93-1.526
				c-0.903-1.128-1.813-0.947-2.947-0.456c-2.208,0.954-4.519,1.606-6.904,1.958c-2.162,0.318-4.312,0.473-6.275-0.783
				c-0.839-0.536-1.664-0.314-2.534-0.078c-2.238,0.605-4.479,1.188-6.838,1.109c-1.378-0.046-2.744-0.176-3.943-0.861
				c-1.147-0.654-2.226-0.637-3.441-0.248c-3.873,1.238-7.874,1.343-11.877,1.05c-2.668-0.195-5.204-1-7.288-2.764
				c-0.945-0.8-1.76-0.816-2.821-0.315c-2.826,1.335-5.739,2.399-8.868,2.854c-1.628,0.236-3.197,0.244-4.724-0.328
				c-1.02-0.383-1.981-0.429-3.039-0.172c-4.296,1.045-8.542,1.192-12.619-0.91c-0.863-0.444-1.706-0.181-2.557,0.092
				c-1.829,0.587-3.695,1.025-5.589,1.354c-1.114,0.193-2.227,0.261-3.344,0.122c-2.456-0.304-2.928-0.799-3.157-3.295
				c-1.293,0.676-2.557,1.343-3.826,1.999c-4.153,2.146-8.077,1.536-11.682-1.199c-1.004-0.762-1.857-1.078-3.04-0.733
				c-1.232,0.358-2.512,0.432-3.792,0.525c-2.308,0.171-4.567,0.509-6.803,1.261c-4.429,1.49-9.002,2.128-13.696,1.585
				c-1.633-0.188-3.197-0.572-4.335-1.792c-0.813-0.872-1.576-0.888-2.552-0.449c-2.199,0.99-4.503,1.647-6.884,2.022
				c-1.513,0.238-3.022,0.266-4.51-0.213c-2.659-0.854-3.695-2.836-2.646-5.398c0.51-1.247,1.303-2.378,1.978-3.556
				c0.238-0.416,0.518-0.809,0.757-1.224c0.321-0.558,0.323-1.064-0.301-1.431c-0.498-0.292-0.928-0.16-1.277,0.247
				c-0.834,0.971-1.654,1.952-2.475,2.935c-0.978,1.169-2.019,2.272-3.257,3.172c-1.57,1.142-3.341,1.503-5.231,1.251
				c-0.901-0.12-1.082-0.645-0.415-1.301c1.596-1.57,3.259-3.071,4.884-4.612c0.638-0.604,1.195-1.302,1.877-1.849
				c1.721-1.38,2.549-2.975,1.486-5.139L980.75,529.7z M1013.763,534.312c-3.049,0.431-5.562,1.493-7.798,3.228
				c-1.013,0.785-1.97,1.648-2.685,2.721c-1.505,2.259-0.586,4.14,2.103,4.334c1.785,0.129,3.506-0.202,5.161-0.853
				c1.451-0.571,1.462-0.649,0.644-1.983c-1.229-2.002-1.185-3.133,0.308-5.006C1012.128,535.958,1012.877,535.257,1013.763,534.312
				z M1159.715,534.244c-1.091,0.239-1.803,0.339-2.478,0.551c-3.124,0.981-5.827,2.627-7.863,5.232
				c-0.699,0.895-1.229,1.896-0.665,3.1c0.559,1.191,1.604,1.445,2.783,1.485c1.787,0.06,3.504-0.261,5.146-0.946
				c1.258-0.525,1.267-0.625,0.502-1.865c-1.255-2.034-1.228-3.14,0.241-5.007C1158.013,535.992,1158.759,535.281,1159.715,534.244z
				 M1051.927,534.773c-3.565,0.599-6.541,1.388-9.356,2.759c-1.617,0.788-2.909,1.96-4.033,3.327
				c-1.102,1.341-1.406,2.614-0.72,3.215c0.994,0.871,2.119,0.509,3.149,0.038C1045.353,542.108,1048.536,538.703,1051.927,534.773z
				 M1161.622,540.363c1.478-1.037,2.453-2.326,3.148-3.854c0.135-0.297,0.117-0.636-0.115-0.896
				c-0.249-0.28-0.563-0.22-0.877-0.105C1162.106,536.118,1161.12,538.166,1161.622,540.363z M1015.688,540.37
				c1.488-1.035,2.457-2.326,3.16-3.848c0.136-0.295,0.119-0.633-0.103-0.899c-0.242-0.292-0.558-0.232-0.873-0.12
				C1016.208,536.097,1015.212,538.14,1015.688,540.37z"/>
		</g>
		<g>
			<path style="fill-rule:evenodd;clip-rule:evenodd;" d="M361.896,485.041c8.637,0,17.274,0.043,25.91-0.029
				c2.213-0.019,3.922,0.442,4.787,2.701c0.902,2.359,0.452,5.491-1.074,6.98c-0.802,0.783-1.801,1.068-2.86,0.997
				c-1.53-0.104-2.318,0.649-2.88,1.979c-1.583,3.753-4.076,6.843-7.104,9.54c-8.783,7.826-22.619,7.859-31.433,0.067
				c-3.036-2.685-5.577-5.75-7.125-9.52c-0.654-1.59-1.667-2.238-3.319-2.045c-0.316,0.036-0.639,0.007-0.959,0.002
				c-2.858-0.039-3.992-0.771-4.769-3.076c-0.826-2.449-0.143-5.597,1.469-6.892c0.886-0.711,1.923-0.702,2.965-0.703
				c5.998-0.003,11.996-0.003,17.994-0.003C356.298,485.041,359.097,485.041,361.896,485.041z"/>
		</g>
		<g>
			<path style="fill-rule:evenodd;clip-rule:evenodd;" d="M622.322,544.432c3.523-0.322,6.294-1.461,8.732-3.331
				c2.924-2.244,5.467-4.914,8.031-7.553c0.616-0.635,0.804-1.187,0.487-2.116c-0.514-1.511-0.082-2.143,1.393-2.759
				c1.17-0.489,2.337-0.464,3.507-0.019c1.512,0.576,1.872,1.151,1.262,2.698c-0.434,1.099,0.006,1.459,0.885,1.749
				c1.365,0.452,2.738,0.885,4.09,1.376c0.672,0.243,1.36,0.517,1.939,0.921c1.352,0.942,1.471,2.024,0.292,3.192
				c-1.019,1.01-2.199,1.854-3.268,2.816c-0.813,0.734-1.745,1.378-2.371,2.64c2.683,0.23,4.875-0.7,6.717-2.141
				c3.018-2.36,5.94-4.858,8.675-7.56c0.871-0.861,1.694-1.69,1.03-3.114c-0.329-0.707-0.009-1.4,0.606-1.918
				c1.239-1.042,4.16-1.127,5.447-0.14c0.629,0.482,0.961,1.082,0.593,1.872c-0.196,0.423-0.455,0.817-0.654,1.169
				c0.396,0.752,1.106,0.774,1.667,1.046c1.223,0.592,2.486,1.106,3.677,1.756c4.287,2.337,4.668,5.34,1.154,8.776
				c-2.308,2.256-5.276,2.9-8.301,3.354c-4.494,0.676-8.923,0.441-13.218-1.179c-0.802-0.303-1.554-0.165-2.342,0.052
				c-1.232,0.339-2.48,0.616-3.727,0.904c-1.182,0.273-2.388,0.296-3.579,0.154c-3.905-0.465-5.371-3.208-3.55-6.678
				c0.631-1.2,1.432-2.311,2.13-3.476c0.333-0.555,0.687-1.178-0.021-1.698c-0.702-0.517-1.189-0.022-1.621,0.479
				c-0.836,0.969-1.623,1.979-2.49,2.918c-4.675,5.053-10.674,7.413-17.316,8.429c-1.12,0.171-2.3,0.136-3.301-0.365
				c-1.415-0.708-2.708-0.486-4.153-0.128c-2.897,0.719-5.849,0.823-8.79,0.121c-1.1-0.262-2.292-0.519-3.007-1.377
				c-0.987-1.186-2.125-1.142-3.442-1.026c-2.788,0.244-5.521,0.584-8.223,1.462c-4.279,1.39-8.698,2.073-13.228,1.462
				c-0.316-0.042-0.64-0.042-0.954-0.099c-4.26-0.777-5.686-3.817-3.564-7.611c0.87-1.555,1.996-2.878,3.47-3.912
				c3.348-2.349,7.021-3.798,11.122-4.021c1.079-0.059,2.275-0.246,2.751,1.259c0.268,0.848,0.976,0.277,1.436,0.157
				c2.276-0.595,4.584-0.606,6.906-0.498c0.319,0.015,0.642,0.025,0.956,0.076c3.683,0.589,4.695,3.021,2.415,5.95
				c-0.81,1.04-1.818,1.926-2.992,3.148c2.146-0.317,3.724-0.833,4.803-2.444c1.456-2.173,3.652-3.844,4.358-6.526
				c0.148-0.562,0.716-0.638,1.186-0.588c1.912,0.2,3.823,0.475,5.51,1.479c1.593,0.949,1.759,1.999,0.358,3.239
				c-1.792,1.588-3.74,3-5.604,4.509c-0.619,0.501-1.257,1.006-1.763,1.611c-0.631,0.757-0.397,1.384,0.551,1.543
				c1.199,0.202,2.386,0.084,3.527-0.397c2.002-0.845,3.968-1.804,5.486-3.368c2.316-2.384,4.994-4.519,6.053-7.881
				c0.252-0.802,0.943-0.815,1.577-0.723c1.579,0.231,3.168,0.456,4.624,1.181c2.29,1.141,2.483,2.312,0.525,3.928
				c-2.157,1.781-4.412,3.443-6.603,5.184C623.576,542.874,622.857,543.263,622.322,544.432z M588.14,534.461
				c-3.731,0.434-7.238,2.16-9.54,4.721c-0.639,0.711-1.247,1.455-1.441,2.431c-0.275,1.386,0.271,2.568,1.54,2.803
				c2.789,0.516,5.426,0.068,7.871-1.535C583.873,539.381,583.971,538.902,588.14,534.461z M662.824,544.943
				c3.236,0.057,5.641-1.588,6.746-4.294c0.701-1.717,0.317-3.082-0.929-4.335c-1.251-1.259-1.725-1.283-2.832,0.12
				c-1.435,1.817-2.965,3.527-4.719,5.047c-0.724,0.627-2.27,0.855-1.903,2.074c0.35,1.167,1.861,0.986,2.896,1.308
				C662.382,544.955,662.715,544.934,662.824,544.943z M590.35,540.224c0.084-0.027,0.173-0.034,0.23-0.079
				c1.334-1.044,2.344-2.355,2.891-3.946c0.241-0.704-0.277-1.003-0.976-0.801c-1.291,0.374-2.916,2.721-2.822,4.063
				C589.702,539.883,589.84,540.23,590.35,540.224z"/>
		</g>
		<g>
			<path style="fill-rule:evenodd;clip-rule:evenodd;" d="M733.839,537.207c2.366,0.332,4.245,0.058,6.04-0.682
				c0.963-0.396,1.69-0.274,2.313,0.554c0.781,1.04,0.602,1.971-0.596,2.521c-1.094,0.503-2.288,0.676-3.478,0.853
				c-2.072,0.306-4.135,0.148-6.21,0.042c-2.609-0.135-3.621,0.637-4.257,3.181c-0.486,1.943-1.054,3.854-1.858,5.689
				c-0.947,2.159-2.321,3.993-4.123,5.522c-2.487,2.112-5.394,2.322-8.377,1.684c-2.345-0.503-3.193-2.396-2.212-4.608
				c0.417-0.938,1.088-1.761,1.627-2.646c0.356-0.587,1.078-0.994,0.921-1.958c-0.874-0.393-1.836-0.154-2.758-0.162
				c-1.628-0.015-3.227-0.187-4.575-1.151c-0.847-0.605-1.622-0.474-2.485-0.203c-2.446,0.766-4.936,1.254-7.505,1.471
				c-3.483,0.295-6.851-0.124-10.157-1.17c-1.229-0.389-2.356-0.993-3.328-1.857c-2.12-1.884-2.372-4.08-0.756-6.39
				c0.894-1.277,2.104-2.178,3.431-2.94c2.89-1.663,6.041-2.559,9.329-2.853c2.061-0.185,4.153-0.079,6.229-0.021
				c0.787,0.021,1.584,0.219,2.348,0.437c1.341,0.381,2.637,0.946,3.013,2.445c0.399,1.591-0.736,2.574-1.8,3.391
				c-4.034,3.099-8.505,3.833-13.33,2.173c-1.57-0.54-1.933-0.456-2.702,0.862c-1.073,1.841-0.58,3.09,1.531,3.487
				c2.375,0.448,4.786,0.362,7.159-0.06c2.214-0.394,4.308-1.198,6.327-2.185c1.601-0.783,2.886-1.844,3.92-3.382
				c3.357-4.994,7.672-9.198,11.653-13.675c1.008-1.134,2.154-2.157,2.795-3.571c0.415-0.914,1.097-1.059,1.975-0.784
				c1.831,0.573,3.708,1.088,5.294,2.189c0.895,0.622,1.555,0.629,2.32-0.073c0.231-0.212,0.537-0.344,0.808-0.514
				c4.146-2.604,8.08-1.783,11.854,0.808c1.612,1.107,1.664,2.307,0.116,3.749c-2.046,1.906-4.219,3.675-6.297,5.547
				C736.639,534.185,735.1,535.32,733.839,537.207z M726.02,530.934c-0.623-0.185-0.923,0.132-1.216,0.378
				c-4.097,3.443-8.162,6.923-11.964,10.695c-0.45,0.446-0.875,0.944-1.2,1.485c-0.534,0.889-0.2,1.525,0.749,1.363
				c2.455-0.418,4.875-1.002,6.706-2.876c1.619-1.656,3.135-3.418,4.807-5.017C725.685,535.258,725.864,533.124,726.02,530.934z
				 M691.92,538.46c3.395,0.289,6.4-0.667,9.125-2.587c0.389-0.274,0.892-0.601,0.778-1.114c-0.16-0.727-0.875-0.612-1.394-0.563
				C697.059,534.523,694.409,536.309,691.92,538.46z M717.003,554.688c3.261-0.877,5.835-4.197,5.968-7.469
				C720.438,549.062,718.043,552.008,717.003,554.688z M731.194,528.131c0.951-0.912,2.173-2.084,3.152-3.023
				C732.416,526.118,731.919,526.609,731.194,528.131z"/>
		</g>
		<g>
			<path style="fill-rule:evenodd;clip-rule:evenodd;" d="M980.629,529.869c-1.607,2.604-3.975,4.34-6.62,5.742
				c-5.157,2.733-10.724,4.084-16.463,4.856c-2.381,0.319-4.765,0.501-7.169,0.453c-0.55-0.011-1.214-0.048-1.638,0.223
				c-2.77,1.765-5.483,3.627-6.825,6.817c-0.634,1.506-1.298,1.852-3.162,1.443c-1.77-0.389-2.467-1.185-2.24-2.798
				c0.271-1.925,0.955-3.726,2.16-5.269c0.706-0.903,0.953-1.579-0.244-2.302c-0.804-0.484-1.114-1.334-0.896-2.302
				c0.267-1.176,1.077-1.746,2.071-1.123c2.131,1.338,3.5,0.462,4.949-1.134c1.609-1.771,3.422-3.357,5.132-5.038
				c0.942-0.926,1.972-1.23,3.269-0.77c1.355,0.482,2.741,0.888,4.003,1.592c2.235,1.247,2.35,2.564,0.343,4.235
				c-1.032,0.858-2.134,1.634-3.394,2.59c0.948,0.503,1.742,0.3,2.464,0.183c4.577-0.743,8.765-2.411,12.397-5.357
				c0.88-0.714,1.641-1.529,2.179-2.525c0.914-1.694,0.471-2.944-1.369-3.573c-1.436-0.491-2.942-0.685-4.477-0.729
				c-5.149-0.146-10.194,0.566-15.188,1.747c-3.823,0.904-7.563,2.041-11.029,3.938c-2.06,1.128-3.991,2.396-4.919,4.702
				c-0.309,0.768-0.849,1.161-1.666,1.065c-1.833-0.216-3.655-0.528-5.245-1.536c-1.92-1.216-2.17-3.156-0.651-4.889
				c0.911-1.039,2.113-1.701,3.324-2.322c4.813-2.472,10.026-3.694,15.257-4.861c8.01-1.787,16.127-2.241,24.301-1.927
				c2.564,0.099,5.088,0.506,7.513,1.382c4.004,1.448,4.957,3.227,3.954,7.316C980.75,529.7,980.629,529.869,980.629,529.869z"/>
		</g>
		<g>
			<path style="fill-rule:evenodd;clip-rule:evenodd;" d="M361.963,479.527c-8.639,0.002-17.278-0.024-25.917,0.021
				c-2.057,0.011-3.855-0.267-4.759-2.405c-0.974-2.304-0.853-4.533,0.602-6.607c0.575-0.819,1.419-1.286,2.438-1.354
				c0.638-0.042,1.279-0.047,1.918-0.047c17.118-0.002,34.236-0.006,51.354,0.001c4.113,0.001,6.293,2.768,5.338,6.734
				c-0.612,2.545-1.926,3.641-4.578,3.647C379.561,479.541,370.762,479.526,361.963,479.527z"/>
		</g>
		<g>
			<path style="fill-rule:evenodd;clip-rule:evenodd;" d="M443.145,549.137c-2.877,0.027-5.757,0.096-8.588-0.58
				c-1.803-0.431-3.558-0.979-4.954-2.274c-1.725-1.601-1.556-3.017,0.472-4.207c1.047-0.614,2.21-0.915,3.369-1.226
				c0.744-0.198,1.401-0.106,1.992,0.454c3.605,3.42,8.075,3.603,12.599,3.11c5.555-0.604,10.743-2.416,15.433-5.519
				c2.494-1.649,4.595-3.731,6.329-6.152c2.552-3.563,1.504-6.574-2.681-7.929c-2.724-0.881-5.55-0.929-8.315-0.579
				c-5.528,0.699-10.754,2.396-15.423,5.553c-1.668,1.128-3.263,2.341-4.009,4.32c-0.346,0.92-1.055,1.107-1.917,1.073
				c-1.712-0.067-3.327-0.506-4.77-1.422c-1.745-1.107-2.021-2.815-0.792-4.531c0.812-1.134,1.962-1.856,3.16-2.52
				c4.249-2.354,8.865-3.609,13.584-4.543c7.538-1.489,15.067-1.67,22.569,0.262c2.265,0.583,4.392,1.48,6.308,2.833
				c2.799,1.976,3.586,4.542,2.31,7.756c-1.03,2.593-2.845,4.61-4.988,6.337c-3.52,2.836-7.44,4.955-11.705,6.446
				C456.657,548.063,450.023,549.33,443.145,549.137z"/>
		</g>
		<g>
			<path style="fill-rule:evenodd;clip-rule:evenodd;" d="M315.991,270.405c-0.01,0.748-0.425,1.023-0.811,1.299
				c-2.728,1.957-5.44,3.938-8.204,5.843c-1.282,0.883-1.559,0.81-2.451-0.629c-2.357-3.805-4.662-7.644-6.975-11.476
				c-3.428-5.681-6.85-11.366-10.264-17.055c-1.293-2.156-1.291-2.192,0.697-3.643c2.259-1.65,4.537-3.275,6.822-4.891
				c1.932-1.366,2.048-1.354,3.283,0.686c5.051,8.342,10.083,16.697,15.123,25.047c0.744,1.232,1.495,2.459,2.225,3.7
				C315.674,269.691,315.856,270.131,315.991,270.405z"/>
		</g>
		<g>
			<path style="fill-rule:evenodd;clip-rule:evenodd;" d="M365.436,239.625c0,5.427,0.016,10.855-0.006,16.283
				c-0.01,2.54-0.201,2.72-2.725,2.748c-2.395,0.027-4.79,0.026-7.184,0.001c-2.538-0.026-2.754-0.219-2.763-2.72
				c-0.023-6.944-0.01-13.888-0.01-20.833c0-4.15-0.021-8.301,0.012-12.451c0.018-2.385,0.236-2.587,2.613-2.614
				c2.474-0.029,4.948-0.028,7.422,0c2.408,0.027,2.62,0.214,2.631,2.585C365.454,228.29,365.436,233.958,365.436,239.625z"/>
		</g>
		<g>
			<path style="fill-rule:evenodd;clip-rule:evenodd;" d="M559.247,524.541c-1.168,0.01-2.994,0.632-4.818,1.218
				c-5.066,1.626-10.214,2.615-15.569,2.262c-1.211-0.079-2.402-0.159-3.437-0.866c-1.284-0.879-1.509-1.999-0.692-3.308
				c0.906-1.451,1.635-1.7,3.098-0.944c2.955,1.529,6.115,1.119,9.182,0.8c4.366-0.456,8.705-1.196,13.037-1.927
				c2.073-0.349,4.141-0.295,6.216-0.33c2.085-0.036,3.512,0.956,4.323,2.821c0.445,1.023,0.769,2.1,1.131,3.158
				c0.83,2.423,0.943,2.504,3.14,1.367c4.403-2.278,8.784-4.601,13.173-6.905c0.142-0.074,0.276-0.162,0.416-0.239
				c2.957-1.627,4.641-1.339,6.871,1.174c0.779,0.878,0.751,1.5-0.199,2.19c-0.512,0.372-1.111,0.63-1.685,0.908
				c-5.896,2.869-11.787,5.75-17.702,8.581c-1.335,0.639-2.44,1.494-3.345,2.649c-1.775,2.267-3.583,4.507-5.346,6.783
				c-0.881,1.137-1.766,2.295-1.932,3.8c-0.114,1.037-0.793,1.354-1.683,1.255c-2.061-0.229-4.16-0.279-6.15-0.928
				c-2.315-0.754-2.746-2.227-1.199-4.201c0.786-1.003,1.718-1.895,2.616-2.806c1.853-1.88,3.699-3.767,5.604-5.594
				c1-0.958,1.206-1.922,0.685-3.223c-0.712-1.778-1.248-3.628-1.863-5.445C562.451,524.821,561.984,524.48,559.247,524.541z"/>
		</g>
		<g>
			<path style="fill-rule:evenodd;clip-rule:evenodd;" d="M505.981,541.617c1.628-0.112,2.783-0.597,3.878-1.233
				c0.875-0.508,1.688-0.671,2.204,0.401c0.479,0.995-0.063,1.682-0.898,2.177c-1.051,0.623-2.235,0.987-3.415,1.032
				c-5.076,0.192-9.849,1.868-14.76,2.863c-2.987,0.605-6.007,0.776-9.045,0.315c-0.881-0.134-1.718-0.37-2.505-0.771
				c-2.269-1.158-3.032-2.981-2.213-5.386c0.55-1.612,1.436-3.068,2.697-4.196c3.64-3.25,7.93-5.015,12.812-5.267
				c1.026-0.053,2.095-0.118,2.518,1.251c0.263,0.853,0.967,0.299,1.426,0.177c2.193-0.582,4.421-0.6,6.66-0.519
				c0.319,0.012,0.641,0.017,0.956,0.064c1.542,0.238,3.053,0.638,3.725,2.224c0.657,1.552-0.276,2.797-1.175,3.915
				C508.062,539.641,507.103,540.476,505.981,541.617z M494.838,534.284c-3.626,0.513-6.439,1.882-8.909,3.996
				c-0.916,0.783-1.746,1.656-2.205,2.782c-0.694,1.703,0.024,3.195,1.744,3.435c2.647,0.369,5.155-0.095,7.47-1.564
				C490.257,539.208,490.394,538.55,494.838,534.284z M499.919,536.191c0-0.796-0.399-0.944-0.943-0.819
				c-1.361,0.313-3.13,2.911-2.887,4.238c0.079,0.43,0.395,0.833,0.803,0.555C498.367,539.16,499.281,537.702,499.919,536.191z"/>
		</g>
		<g>
			<path style="fill-rule:evenodd;clip-rule:evenodd;" d="M446.767,544.224c-2.349,0.059-3.319-1.112-2.811-3.318
				c0.275-1.188,0.859-2.243,1.585-3.193c2.759-3.609,5.567-7.182,8.332-10.786c0.761-0.993,1.587-1.213,2.674-0.55
				c1.36,0.829,2.807,1.529,4.107,2.441c1.462,1.025,1.479,1.89,0.196,3.097c-0.635,0.599-1.375,1.085-2.066,1.625
				c-2.386,1.866-4.775,3.727-7.154,5.602c-1.388,1.094-2.688,2.271-3.273,4.018C448.083,543.973,447.494,544.25,446.767,544.224z"
				/>
		</g>
	</g>
</g>
</svg>
